<svg width="500" height="103" viewBox="0 0 500 103" fill="none" xmlns="http://www.w3.org/2000/svg">
<g clip-path="url(#clip0_1026_20144)">
<rect width="500" height="312" rx="20" fill="white"/>
<mask id="mask0_1026_20144" style="mask-type:alpha" maskUnits="userSpaceOnUse" x="0" y="0" width="500" height="123">
<path d="M0 20C0 8.95431 8.9543 0 20 0H480C491.046 0 500 8.9543 500 20V123H0V20Z" fill="url(#paint0_linear_1026_20144)"/>
</mask>
<g mask="url(#mask0_1026_20144)">
<path d="M0 20C0 8.95431 8.9543 0 20 0H480C491.046 0 500 8.9543 500 20V103H0V20Z" fill="url(#paint1_linear_1026_20144)"/>
<path d="M0.960223 2.56122C0.408959 1.31436 -1.026 0.815592 -2.12973 1.43908C-3.23345 2.06245 -3.6747 3.68336 -3.12224 4.93034C-2.57098 6.17721 -1.13602 6.67598 -0.0322919 6.05249C1.07143 5.30439 1.51268 3.80809 0.960223 2.56122Z" fill="white" fill-opacity="0.1"/>
<path d="M10.7826 6.05275C10.2313 4.80589 8.90638 4.30712 7.80266 5.05521C6.70013 5.6787 6.25768 7.17489 6.92016 8.42175C7.47262 9.66862 8.79637 10.1674 9.9001 9.41929C10.8938 8.7958 11.3351 7.29961 10.7826 6.05275Z" fill="white" fill-opacity="0.1"/>
<path d="M3.49932 20.3918C2.94686 19.1446 1.62311 18.646 0.519387 19.269C-0.584337 19.8932 -1.02559 21.3891 -0.474323 22.6364C0.0781369 23.8824 1.40189 24.381 2.50561 23.758C3.60934 23.135 4.05059 21.6379 3.49932 20.3918Z" fill="white" fill-opacity="0.1"/>
<path d="M20.8241 8.67049C20.2729 7.42362 18.9479 7.04958 17.9554 7.67295C16.8517 8.29644 16.5204 9.79263 17.0717 10.9148C17.6242 12.162 18.9479 12.5363 19.9416 11.9121C21.0454 11.2889 21.3766 9.91735 20.8241 8.67049Z" fill="white" fill-opacity="0.1"/>
<path d="M13.4302 23.1347C12.8777 21.8875 11.554 21.5132 10.4502 22.1374C9.34651 22.7605 9.01527 24.2564 9.56654 25.5036C10.119 26.7508 11.4428 27.1239 12.5465 26.5009C13.6502 25.8779 14.0915 24.382 13.4302 23.1347Z" fill="white" fill-opacity="0.1"/>
<path d="M6.36647 36.725C5.81521 35.4778 4.49026 34.9792 3.38654 35.6034C2.28281 36.2264 1.84156 37.7223 2.39402 38.9696C2.94529 40.2168 4.27023 40.7154 5.37396 40.0912C6.47768 39.4682 6.91893 37.9723 6.36647 36.725Z" fill="white" fill-opacity="0.1"/>
<path d="M-0.363001 49.3182C-0.915462 48.0721 -2.34923 47.5735 -3.34294 48.1965C-4.44666 48.8195 -4.88791 50.441 -4.33665 51.5627C-3.78419 52.8099 -2.34923 53.3086 -1.35671 52.6855C-0.142974 52.0613 0.188263 50.5654 -0.363001 49.3182Z" fill="white" fill-opacity="0.1"/>
<path d="M28.7951 13.4248C27.6901 13.0349 27.0743 11.7054 27.4199 10.4568C27.7667 9.208 28.9421 8.5124 30.0483 8.90319C31.1532 9.29386 31.769 10.6228 31.4234 11.8714C31.0766 13.1198 29.9012 13.8158 28.7951 13.4248Z" fill="white" fill-opacity="0.1"/>
<path d="M23.8039 24.8799C23.2514 23.7582 21.9276 23.2595 20.9339 23.8826C19.9414 24.5056 19.5002 26.0027 20.0514 27.1244C20.6027 28.246 21.9276 28.7447 22.9214 28.1217C23.9139 27.4987 24.3551 26.0027 23.8039 24.8799Z" fill="white" fill-opacity="0.1"/>
<path d="M16.5214 38.7199C15.969 37.4727 14.6452 37.0996 13.6515 37.7226C12.5478 38.3456 12.2178 39.8428 12.769 40.9644C13.3215 42.2116 14.6452 42.5859 15.6389 41.9617C16.7427 41.3387 17.0727 39.8428 16.5214 38.7199Z" fill="white" fill-opacity="0.1"/>
<path d="M9.67786 51.5629C9.1266 50.3156 7.80284 49.817 6.69912 50.5656C5.59539 51.1886 5.15414 52.6845 5.81542 53.9318C6.36788 55.179 7.69163 55.6776 8.79536 54.929C9.78907 54.306 10.2303 52.8101 9.67786 51.5629Z" fill="white" fill-opacity="0.1"/>
<path d="M3.05668 63.7817C2.50422 62.5356 1.18046 62.037 0.0767391 62.66C-1.02699 63.283 -1.46824 64.7802 -0.916972 66.0262C-0.364512 67.2734 0.95924 67.7721 2.06297 67.1491C3.2767 66.5248 3.60794 65.0289 3.05668 63.7817Z" fill="white" fill-opacity="0.1"/>
<path d="M42.0137 9.79389C41.4612 8.67163 40.2475 8.29759 39.2538 8.79635C38.2612 9.41985 37.93 10.7913 38.3713 11.9132C38.9237 13.0361 40.1375 13.4092 41.13 12.9105C42.2337 12.2875 42.5649 10.916 42.0137 9.79389Z" fill="white" fill-opacity="0.1"/>
<path d="M34.5084 25.0049C33.9572 23.882 32.7422 23.3834 31.7497 24.0076C30.756 24.6306 30.3148 26.0022 30.866 27.1238C31.4185 28.2467 32.6322 28.7453 33.6259 28.1223C34.6185 27.6237 35.0597 26.1265 34.5084 25.0049Z" fill="white" fill-opacity="0.1"/>
<path d="M27.1162 39.3438C26.5638 38.2222 25.35 37.7235 24.2463 38.3465C23.2538 38.9696 22.8113 40.3411 23.3638 41.5884C23.9151 42.7112 25.13 43.2099 26.2325 42.5857C27.3362 41.9626 27.6675 40.4667 27.1162 39.3438Z" fill="white" fill-opacity="0.1"/>
<path d="M20.0513 52.6854C19.4988 51.4382 18.1751 51.0639 17.1813 51.6881C16.0776 52.3111 15.7464 53.8071 16.2988 54.9299C16.8501 56.0516 18.1751 56.5502 19.1676 55.9272C20.2713 55.4286 20.6025 53.9326 20.0513 52.6854Z" fill="white" fill-opacity="0.1"/>
<path d="M13.3215 65.4028C12.769 64.1556 11.4453 63.7813 10.3415 64.4043C9.2378 65.0285 8.90656 66.5245 9.45902 67.7717C10.0103 69.0177 11.3352 69.392 12.4378 68.769C13.4315 68.0204 13.8727 66.5245 13.3215 65.4028Z" fill="white" fill-opacity="0.1"/>
<path d="M6.80752 77.2484C6.25625 76.0012 4.9313 75.5026 3.82758 76.2499C2.72386 76.8741 2.2826 78.3701 2.94508 79.6173C3.49634 80.8633 4.82129 81.362 5.92502 80.6146C6.91753 79.9916 7.35878 78.4944 6.80752 77.2484Z" fill="white" fill-opacity="0.1"/>
<path d="M0.519034 88.72C-0.0322307 87.4728 -1.35718 86.9741 -2.4609 87.5971C-3.56463 88.2213 -4.00588 89.7173 -3.45342 90.9645C-2.90215 92.2105 -1.57721 92.7092 -0.473482 92.0862C0.629047 91.5875 1.07149 89.9672 0.519034 88.72Z" fill="white" fill-opacity="0.1"/>
<path d="M50.6483 10.8529C49.6367 10.3741 49.1596 9.05918 49.5841 7.91587C50.0074 6.77256 51.1709 6.23374 52.1837 6.71242C53.1954 7.19121 53.6725 8.50612 53.248 9.64942C52.8247 10.7927 51.6612 11.3316 50.6483 10.8529Z" fill="white" fill-opacity="0.1"/>
<path d="M45.5461 23.5092C44.9936 22.3864 43.7799 22.0121 42.7874 22.512C41.7937 23.135 41.4624 24.5065 41.9037 25.6282C42.3461 26.7511 43.6699 27.1254 44.6636 26.6255C45.7661 26.0025 46.0974 24.6309 45.5461 23.5092Z" fill="white" fill-opacity="0.1"/>
<path d="M38.151 38.3468C37.5997 37.2239 36.386 36.7253 35.3923 37.3495C34.3998 37.9725 33.9573 39.3441 34.5098 40.4657C35.0611 41.5886 36.2748 42.0873 37.2685 41.463C38.2622 40.9644 38.7035 39.4684 38.151 38.3468Z" fill="white" fill-opacity="0.1"/>
<path d="M30.9775 52.3103C30.4262 51.1886 29.2113 50.69 28.1076 51.313C27.115 51.936 26.6738 53.3076 27.2251 54.5548C27.7775 55.802 28.9913 56.1751 30.095 55.5521C31.0875 54.9291 31.4187 53.5575 30.9775 52.3103Z" fill="white" fill-opacity="0.1"/>
<path d="M20.037 66.743C19.9952 65.4348 20.8992 64.3371 22.0567 64.2904C23.2143 64.2426 24.1853 65.265 24.2271 66.572C24.269 67.879 23.3649 68.978 22.2074 69.0246C21.0511 69.0724 20.0789 68.05 20.037 66.743Z" fill="white" fill-opacity="0.1"/>
<path d="M17.2914 78.1216C16.7401 76.8743 15.4152 76.5001 14.4226 77.1231C13.3189 77.7473 12.9877 79.2432 13.5389 80.3649C14.0914 81.6121 15.4152 81.9864 16.4089 81.3634C17.4014 80.7392 17.8438 79.2432 17.2914 78.1216Z" fill="white" fill-opacity="0.1"/>
<path d="M10.7826 89.9661C10.2313 88.72 8.90638 88.2202 7.80266 88.9688C6.70013 89.5918 6.25768 91.0889 6.92016 92.3349C7.47262 93.5822 8.79637 94.0808 9.9001 93.3334C10.8938 92.7092 11.3351 91.2133 10.7826 89.9661Z" fill="white" fill-opacity="0.1"/>
<path d="M4.38047 101.563C3.82801 100.316 2.50426 99.8169 1.40053 100.441C0.296809 101.064 -0.144442 102.56 0.406823 103.807C0.959283 105.055 2.28304 105.553 3.38676 104.929C4.6005 104.306 5.04175 102.686 4.38047 101.563Z" fill="white" fill-opacity="0.1"/>
<path d="M64.5265 3.93297C64.0852 2.93543 62.8715 2.43666 61.9878 3.06015C61.1053 3.55892 60.664 4.93051 61.2153 5.92793C61.6577 6.92546 62.8715 7.42423 63.754 6.80074C64.6365 6.30197 65.0777 4.93051 64.5265 3.93297Z" fill="white" fill-opacity="0.1"/>
<path d="M57.0222 20.1432C56.4709 19.0203 55.3672 18.646 54.3735 19.1459C53.381 19.7689 53.0497 21.0161 53.491 22.1378C54.0422 23.2594 55.146 23.6337 56.1397 23.1351C57.1334 22.6364 57.4634 21.2648 57.0222 20.1432Z" fill="white" fill-opacity="0.1"/>
<path d="M49.5185 35.6032C48.966 34.4804 47.7523 34.1061 46.8698 34.6059C45.8761 35.229 45.5448 36.6005 45.9873 37.5978C46.5385 38.7195 47.7523 39.0938 48.6348 38.5951C49.6285 38.0965 50.0698 36.7249 49.5185 35.6032Z" fill="white" fill-opacity="0.1"/>
<path d="M42.2338 50.3169C41.6825 49.1952 40.4688 48.6966 39.4751 49.3196C38.4825 49.9426 38.0401 51.3142 38.5926 52.437C39.1438 53.5587 40.3588 54.0573 41.3513 53.4343C42.345 52.8101 42.7862 51.4385 42.2338 50.3169Z" fill="white" fill-opacity="0.1"/>
<path d="M35.0612 64.1556C34.5088 63.0339 33.295 62.5353 32.3025 63.1583C31.3088 63.7825 30.8676 65.1541 31.4188 66.2758C31.9713 67.3974 33.185 67.8961 34.1787 67.2731C35.2813 66.7744 35.6125 65.2785 35.0612 64.1556Z" fill="white" fill-opacity="0.1"/>
<path d="M28.2196 77.3727C27.6683 76.2498 26.4546 75.7512 25.3509 76.3754C24.3572 76.9984 23.9159 78.37 24.4672 79.6172C25.0196 80.7388 26.2334 81.2375 27.3371 80.6145C28.3308 79.9903 28.7721 78.4943 28.2196 77.3727Z" fill="white" fill-opacity="0.1"/>
<path d="M21.4875 89.9671C20.9351 88.7199 19.6113 88.3456 18.6176 88.9698C17.5139 89.5929 17.1827 91.0888 17.7351 92.2117C18.2864 93.4577 19.6113 93.832 20.6039 93.209C21.7076 92.5859 22.0388 91.0888 21.4875 89.9671Z" fill="white" fill-opacity="0.1"/>
<path d="M14.9765 101.936C14.4241 100.689 13.1003 100.315 11.9966 100.938C10.8929 101.562 10.5616 103.058 11.1141 104.305C11.6653 105.551 12.9903 105.925 14.094 105.302C15.1977 104.679 15.5278 103.182 14.9765 101.936Z" fill="white" fill-opacity="0.1"/>
<path d="M76.1138 -1.80165C75.6726 -2.79906 74.5688 -3.17323 73.5763 -2.67446C72.6926 -2.17569 72.3614 -0.928831 72.8038 0.193309C73.2451 1.19085 74.3488 1.56489 75.3413 1.06612C76.2238 0.567356 76.5551 -0.679507 76.1138 -1.80165Z" fill="white" fill-opacity="0.1"/>
<path d="M68.7217 14.9051C68.2805 13.9078 67.0667 13.4091 66.183 14.0322C65.3005 14.5308 64.8593 15.9024 65.4106 16.8997C65.8518 17.8982 67.0667 18.3968 67.9492 17.7726C68.8317 17.274 69.163 16.028 68.7217 14.9051Z" fill="white" fill-opacity="0.1"/>
<path d="M61.2156 30.9902C60.7744 29.8685 59.5607 29.4942 58.5681 30.1173C57.5744 30.6159 57.2432 31.9875 57.7957 33.1104C58.2369 34.232 59.4506 34.6063 60.4432 33.9833C61.3269 33.3591 61.7681 32.1119 61.2156 30.9902Z" fill="white" fill-opacity="0.1"/>
<path d="M53.9333 46.325C53.3821 45.2034 52.2783 44.8291 51.2846 45.3277C50.2921 45.9519 49.9609 47.198 50.4021 48.3208C50.9534 49.4425 52.0571 49.8168 53.0508 49.3181C54.0445 48.6951 54.3746 47.4479 53.9333 46.325Z" fill="white" fill-opacity="0.1"/>
<path d="M46.6495 60.9149C46.0983 59.792 44.8845 59.4189 43.8908 59.9176C42.8971 60.5406 42.5671 61.9122 43.0083 63.0338C43.5596 64.1567 44.7733 64.531 45.767 64.0323C46.7607 63.4081 47.202 62.0365 46.6495 60.9149Z" fill="white" fill-opacity="0.1"/>
<path d="M39.6963 74.8799C39.1438 73.7571 37.9301 73.2584 36.9364 73.8814C35.9438 74.5056 35.5026 75.8772 36.0538 76.9989C36.6051 78.1217 37.82 78.6204 38.8126 77.9962C39.8063 77.4975 40.1375 76.1259 39.6963 74.8799Z" fill="white" fill-opacity="0.1"/>
<path d="M32.7423 88.3455C32.1911 87.2226 30.9773 86.724 29.8736 87.347C28.8799 87.9712 28.4387 89.3428 28.9899 90.5888C29.5424 91.7117 30.7561 92.2103 31.8598 91.5873C32.9636 90.9631 33.2948 89.4672 32.7423 88.3455Z" fill="white" fill-opacity="0.1"/>
<path d="M26.0114 101.188C25.4602 100.065 24.1352 99.5667 23.1415 100.191C22.149 100.814 21.7077 102.31 22.259 103.433C22.8115 104.554 24.1352 105.053 25.1289 104.43C26.2327 103.806 26.5627 102.31 26.0114 101.188Z" fill="white" fill-opacity="0.1"/>
<path d="M80.42 8.04737C79.9787 7.04984 78.875 6.67579 77.9913 7.17456C77.1088 7.67321 76.7776 8.92007 77.2188 9.91761C77.6613 10.9151 78.7638 11.2892 79.6475 10.7904C80.53 10.2917 80.8612 9.04479 80.42 8.04737Z" fill="white" fill-opacity="0.1"/>
<path d="M73.1353 24.5065C72.694 23.5092 71.4803 23.0106 70.5978 23.6336C69.7141 24.1322 69.2728 25.5038 69.8253 26.5023C70.2666 27.4996 71.4803 27.9983 72.3628 27.3741C73.2465 26.8754 73.5777 25.6294 73.1353 24.5065Z" fill="white" fill-opacity="0.1"/>
<path d="M65.8521 40.467C65.4108 39.3442 64.1971 38.9711 63.2034 39.5941C62.2109 40.0927 61.8796 41.4643 62.4309 42.586C62.8722 43.7088 64.0859 44.0831 65.0796 43.4589C65.9621 42.8359 66.2933 41.5887 65.8521 40.467Z" fill="white" fill-opacity="0.1"/>
<path d="M58.5693 55.8016C58.0168 54.6799 56.9131 54.3057 55.9206 54.8043C54.9269 55.4273 54.5956 56.6745 55.0369 57.7974C55.5893 58.9191 56.6931 59.2933 57.6856 58.7947C58.6793 58.296 59.1205 56.9245 58.5693 55.8016Z" fill="white" fill-opacity="0.1"/>
<path d="M51.5058 70.6392C50.9545 69.5176 49.7396 69.1433 48.7471 69.6419C47.7534 70.265 47.4221 71.6365 47.8634 72.7594C48.4159 73.8811 49.6296 74.2553 50.6233 73.7567C51.6158 73.0081 51.9471 71.7609 51.5058 70.6392Z" fill="white" fill-opacity="0.1"/>
<path d="M44.4411 84.8538C43.8898 83.7322 42.6749 83.2335 41.6824 83.8566C40.6887 84.4808 40.2474 85.8523 40.7987 86.974C41.3511 88.0957 42.5649 88.5955 43.5586 87.9713C44.6623 87.3483 44.9935 85.9767 44.4411 84.8538Z" fill="white" fill-opacity="0.1"/>
<path d="M37.5995 98.5682C37.0471 97.4465 35.8333 96.9479 34.8396 97.5709C33.8471 98.1951 33.4047 99.5655 33.9571 100.688C34.5084 101.81 35.7233 102.309 36.7158 101.686C37.7096 101.063 38.1508 99.8154 37.5995 98.5682Z" fill="white" fill-opacity="0.1"/>
<path d="M92.1175 -0.430653C91.6762 -1.42819 90.5725 -1.80224 89.69 -1.30347C88.8075 -0.804699 88.4762 0.442163 88.9175 1.43958C89.3587 2.43712 90.4625 2.81116 91.345 2.3124C92.2287 1.81363 92.5599 0.566765 92.1175 -0.430653Z" fill="white" fill-opacity="0.1"/>
<path d="M85.055 16.5266C84.6137 15.5293 83.51 15.155 82.6263 15.6537C81.7438 16.1523 81.4126 17.3996 81.8538 18.3969C82.2963 19.3942 83.3988 19.7684 84.2825 19.2698C85.165 18.7711 85.4962 17.5239 85.055 16.5266Z" fill="white" fill-opacity="0.1"/>
<path d="M77.8829 32.9848C77.4416 31.9875 76.2279 31.6132 75.3454 32.1131C74.4617 32.6117 74.1317 33.9833 74.5729 34.9806C75.0142 35.9779 76.2279 36.3522 77.1104 35.8536C77.9941 35.2293 78.4353 33.9833 77.8829 32.9848Z" fill="white" fill-opacity="0.1"/>
<path d="M70.7081 48.8208C70.2669 47.8235 69.0531 47.3236 68.1694 47.9478C67.2869 48.4465 66.8457 49.8181 67.3969 50.8154C67.8382 51.8127 69.0531 52.3113 69.9356 51.6883C70.8181 51.1897 71.2594 49.9424 70.7081 48.8208Z" fill="white" fill-opacity="0.1"/>
<path d="M63.6443 64.4059C63.0931 63.283 61.9893 62.9099 60.9956 63.5329C60.0031 64.1559 59.6719 65.4032 60.2231 66.5248C60.7756 67.6477 61.8793 68.022 62.8718 67.3978C63.7555 66.7747 64.0868 65.4032 63.6443 64.4059Z" fill="white" fill-opacity="0.1"/>
<path d="M56.5829 79.4928C56.0305 78.3711 54.9268 77.9968 53.9342 78.4955C52.9405 79.1185 52.6093 80.3657 53.0505 81.4874C53.4918 82.6102 54.7067 82.9845 55.6992 82.4859C56.693 81.8616 57.1342 80.4901 56.5829 79.4928Z" fill="white" fill-opacity="0.1"/>
<path d="M47.7535 97.4479C46.657 97.4479 45.7673 96.4422 45.7673 95.2034C45.7673 93.9633 46.657 92.9589 47.7535 92.9589C48.8501 92.9589 49.7397 93.9633 49.7397 95.2034C49.7397 96.4422 48.8501 97.4479 47.7535 97.4479Z" fill="white" fill-opacity="0.1"/>
<path d="M96.8636 7.17437C96.4223 6.17696 95.3186 5.80291 94.4349 6.30156C93.5524 6.80033 93.2212 8.04719 93.6624 9.04461C94.1037 10.0421 95.2074 10.4162 96.0911 9.91742C96.9736 9.41865 97.3048 8.17191 96.8636 7.17437Z" fill="white" fill-opacity="0.1"/>
<path d="M90.0216 23.8836C89.5791 22.8863 88.4754 22.512 87.5929 23.0106C86.7104 23.5093 86.3792 24.7565 86.8204 25.7538C87.2617 26.7511 88.3654 27.1254 89.2479 26.6267C90.1316 26.1281 90.4628 24.8809 90.0216 23.8836Z" fill="white" fill-opacity="0.1"/>
<path d="M82.9576 40.3399C82.5163 39.3426 81.4126 38.9683 80.4189 39.4669C79.5364 39.9656 79.2051 41.2128 79.6464 42.3344C80.0888 43.3329 81.1914 43.706 82.1851 43.2074C83.0676 42.5844 83.51 41.3372 82.9576 40.3399Z" fill="white" fill-opacity="0.1"/>
<path d="M75.8929 56.3005C75.4516 55.3032 74.2379 54.8045 73.3554 55.4275C72.4717 55.9262 72.0305 57.2978 72.5829 58.2951C73.0242 59.2936 74.2379 59.7922 75.1204 59.168C76.0041 58.6694 76.4454 57.4233 75.8929 56.3005Z" fill="white" fill-opacity="0.1"/>
<path d="M68.9432 72.1364C68.5007 71.0135 67.287 70.6392 66.2945 71.2634C65.3008 71.7621 64.9695 73.1337 65.522 74.2553C65.9632 75.3782 67.177 75.7513 68.1707 75.1283C69.0532 74.5053 69.3844 73.258 68.9432 72.1364Z" fill="white" fill-opacity="0.1"/>
<path d="M61.8778 87.7227C61.3266 86.5998 60.2229 86.2255 59.2291 86.7242C58.2366 87.3484 57.9054 88.5956 58.3466 89.7173C58.7879 90.8389 60.0016 91.2132 60.9953 90.7146C62.0991 90.0916 62.4303 88.8443 61.8778 87.7227Z" fill="white" fill-opacity="0.1"/>
<path d="M54.8134 103.058C54.2621 101.937 53.0484 101.562 52.0547 102.061C51.0622 102.684 50.7309 104.056 51.1722 105.179C51.7234 106.3 52.9372 106.675 53.9309 106.176C55.0346 105.552 55.3659 104.18 54.8134 103.058Z" fill="white" fill-opacity="0.1"/>
<path d="M108.231 -3.0493C107.789 -4.04684 106.796 -4.42089 105.913 -3.92212C105.03 -3.42347 104.699 -2.30121 105.14 -1.30379C105.583 -0.306256 106.575 0.067791 107.459 -0.430978C108.341 -0.929747 108.672 -2.05189 108.231 -3.0493Z" fill="white" fill-opacity="0.1"/>
<path d="M101.83 13.7836C101.389 12.7863 100.285 12.412 99.4026 12.9106C98.519 13.4093 98.1877 14.6565 98.6302 15.6538C99.0714 16.6511 100.175 17.0254 101.058 16.5267C101.94 16.0281 102.271 14.7809 101.83 13.7836Z" fill="white" fill-opacity="0.1"/>
<path d="M95.0978 30.366C94.6565 29.3687 93.5528 28.9944 92.6703 29.493C91.7866 29.9917 91.4553 31.2389 91.8978 32.2362C92.339 33.2335 93.4428 33.6078 94.3253 33.1091C95.2078 32.6105 95.649 31.4876 95.0978 30.366Z" fill="white" fill-opacity="0.1"/>
<path d="M88.2539 46.8259C87.8127 45.8274 86.709 45.4543 85.7164 45.953C84.8327 46.4516 84.5027 47.6989 84.944 48.8205C85.3852 49.8178 86.4889 50.1921 87.4814 49.6934C88.3651 49.1948 88.6964 47.9476 88.2539 46.8259Z" fill="white" fill-opacity="0.1"/>
<path d="M81.4139 63.1571C80.9726 62.1598 79.7577 61.6612 78.8752 62.2854C77.9927 62.784 77.5514 64.1556 78.1027 65.1529C78.5439 66.1502 79.7577 66.6489 80.6414 66.0259C81.5239 65.5272 81.8551 64.28 81.4139 63.1571Z" fill="white" fill-opacity="0.1"/>
<path d="M74.46 79.4919C74.0188 78.4946 72.805 77.9959 71.9225 78.619C71.0388 79.1188 70.5976 80.4892 71.15 81.4877C71.5913 82.485 72.805 82.9836 73.6875 82.3606C74.5712 81.8608 74.9013 80.4892 74.46 79.4919Z" fill="white" fill-opacity="0.1"/>
<path d="M67.398 95.7008C66.8468 94.5791 65.743 94.2048 64.7493 94.8278C63.7568 95.452 63.4256 96.6981 63.9768 97.8209C64.5293 98.9426 65.633 99.3169 66.6255 98.6939C67.5092 98.0696 67.9505 96.6981 67.398 95.7008Z" fill="white" fill-opacity="0.1"/>
<path d="M111.762 5.9279C110.788 5.9279 109.997 5.03475 109.997 3.93294C109.997 2.83113 110.788 1.93787 111.762 1.93787C112.738 1.93787 113.528 2.83113 113.528 3.93294C113.528 5.03475 112.738 5.9279 111.762 5.9279Z" fill="white" fill-opacity="0.1"/>
<path d="M107.017 19.7673C106.576 18.77 105.472 18.3957 104.589 18.8956C103.706 19.3942 103.375 20.6402 103.816 21.6387C104.259 22.636 105.362 23.0091 106.245 22.5105C107.127 21.8875 107.459 20.7658 107.017 19.7673Z" fill="white" fill-opacity="0.1"/>
<path d="M100.396 36.3508C99.9548 35.3535 98.8511 34.9793 97.9674 35.4779C97.0849 35.9777 96.7536 37.2238 97.1949 38.2211C97.6373 39.2196 98.7399 39.5927 99.6236 39.094C100.506 38.5954 100.837 37.3493 100.396 36.3508Z" fill="white" fill-opacity="0.1"/>
<path d="M93.7728 52.9343C93.3315 51.937 92.2278 51.5627 91.3453 52.0614C90.4628 52.56 90.1316 53.8073 90.5728 54.8046C91.0141 55.8019 92.1178 56.1762 93.0003 55.6775C93.884 55.1789 94.214 53.9316 93.7728 52.9343Z" fill="white" fill-opacity="0.1"/>
<path d="M86.9302 69.6434C86.489 68.6461 85.2753 68.1474 84.3928 68.7704C83.5091 69.2691 83.0678 70.6407 83.6203 71.638C84.0615 72.6353 85.2753 73.1339 86.1578 72.5109C87.0415 71.8879 87.4827 70.6407 86.9302 69.6434Z" fill="white" fill-opacity="0.1"/>
<path d="M80.0902 86.4752C79.6489 85.4779 78.434 84.9792 77.5515 85.6022C76.669 86.1009 76.2277 87.4725 76.779 88.4698C77.2203 89.4671 78.434 89.9669 79.3177 89.3427C80.2002 88.844 80.6414 87.5968 80.0902 86.4752Z" fill="white" fill-opacity="0.1"/>
<path d="M73.0253 103.433C72.4729 102.312 71.3692 101.937 70.3766 102.56C69.3829 103.184 69.0517 104.43 69.6041 105.553C70.1554 106.675 71.2591 107.049 72.2528 106.426C73.2454 105.928 73.5766 104.556 73.0253 103.433Z" fill="white" fill-opacity="0.1"/>
<path d="M118.273 8.67037C117.832 7.67283 116.839 7.4235 115.956 7.79755C115.074 8.29632 114.852 9.41846 115.184 10.4159C115.625 11.4134 116.618 11.6627 117.501 11.2887C118.383 10.7899 118.715 9.66778 118.273 8.67037Z" fill="white" fill-opacity="0.1"/>
<path d="M112.202 25.2539C111.761 24.2566 110.657 23.8823 109.884 24.381C109.002 24.8808 108.671 26.1268 109.112 26.9998C109.553 27.9971 110.657 28.3714 111.429 27.8727C112.313 27.3741 112.644 26.1268 112.202 25.2539Z" fill="white" fill-opacity="0.1"/>
<path d="M105.803 41.8369C105.361 40.8396 104.258 40.4653 103.375 40.964C102.493 41.4626 102.161 42.7099 102.603 43.7072C103.044 44.7045 104.148 45.0787 105.03 44.5801C105.914 44.0814 106.244 42.8342 105.803 41.8369Z" fill="white" fill-opacity="0.1"/>
<path d="M99.2913 58.6693C98.8501 57.672 97.7463 57.2977 96.8638 57.7964C95.9801 58.295 95.6489 59.5423 96.0913 60.5396C96.5326 61.5369 97.6363 61.9111 98.5188 61.4125C99.4013 61.0382 99.7326 59.7922 99.2913 58.6693Z" fill="white" fill-opacity="0.1"/>
<path d="M92.6697 75.8771C92.2285 74.8798 91.0147 74.5055 90.1322 75.0041C89.2485 75.5028 88.9185 76.8744 89.3597 77.8717C89.801 78.8702 91.0147 79.2433 91.8972 78.7446C92.7809 78.246 93.1122 76.9999 92.6697 75.8771Z" fill="white" fill-opacity="0.1"/>
<path d="M85.826 93.5819C85.3836 92.5834 84.1698 92.0847 83.2873 92.7089C82.4048 93.2076 81.9624 94.5792 82.5148 95.5765C83.0661 96.5738 84.1698 97.0724 85.0535 96.4494C85.936 95.8252 86.3773 94.5792 85.826 93.5819Z" fill="white" fill-opacity="0.1"/>
<path d="M128.978 -2.55059C128.537 -3.42341 127.543 -3.79746 126.771 -3.29869C125.998 -2.79992 125.667 -1.67778 126.109 -0.804964C126.551 0.067852 127.543 0.441899 128.316 -0.05687C129.088 -0.555639 129.419 -1.67778 128.978 -2.55059Z" fill="white" fill-opacity="0.1"/>
<path d="M123.461 14.0325C123.019 13.0352 122.026 12.7852 121.143 13.1595C120.26 13.6582 120.04 14.7798 120.371 15.7783C120.812 16.7756 121.806 17.0244 122.688 16.6513C123.571 16.1514 123.902 14.9054 123.461 14.0325Z" fill="white" fill-opacity="0.1"/>
<path d="M117.501 30.4915C117.06 29.4942 115.956 29.1199 115.183 29.6185C114.301 30.1172 113.97 31.3644 114.411 32.2373C114.852 33.2346 115.956 33.6089 116.728 33.1103C117.612 32.6116 117.943 31.4888 117.501 30.4915Z" fill="white" fill-opacity="0.1"/>
<path d="M111.321 47.3237C110.88 46.3264 109.776 45.9522 108.894 46.4508C108.01 46.9495 107.68 48.1967 108.121 49.194C108.562 50.1913 109.666 50.5656 110.549 50.0669C111.431 49.4439 111.762 48.1967 111.321 47.3237Z" fill="white" fill-opacity="0.1"/>
<path d="M104.919 64.5298C104.477 63.5325 103.374 63.1582 102.491 63.6569C101.608 64.1555 101.278 65.4027 101.719 66.4C102.16 67.3973 103.264 67.7716 104.146 67.273C105.029 66.7743 105.36 65.5271 104.919 64.5298Z" fill="white" fill-opacity="0.1"/>
<path d="M98.4095 82.3605C97.9682 81.3632 96.8645 80.9889 95.8708 81.4875C94.9883 81.9862 94.657 83.2334 95.0983 84.3551C95.5395 85.3524 96.6433 85.7267 97.637 85.228C98.5195 84.605 98.8507 83.3578 98.4095 82.3605Z" fill="white" fill-opacity="0.1"/>
<path d="M91.6749 100.69C91.2336 99.6926 90.0199 99.1939 89.1374 99.817C88.2537 100.316 87.8124 101.687 88.3649 102.684C88.8061 103.682 90.0199 104.18 90.9024 103.557C91.7861 103.059 92.1161 101.687 91.6749 100.69Z" fill="white" fill-opacity="0.1"/>
<path d="M133.944 2.81115C133.503 1.93845 132.51 1.5644 131.737 2.06305C130.964 2.56182 130.634 3.68396 131.075 4.55678C131.516 5.42959 132.51 5.80364 133.283 5.30487C134.055 4.8061 134.386 3.68396 133.944 2.81115Z" fill="white" fill-opacity="0.1"/>
<path d="M128.537 19.2703C128.096 18.3974 127.102 18.0231 126.22 18.5217C125.447 19.0204 125.116 20.1432 125.557 21.1405C125.998 22.0135 126.992 22.3866 127.875 21.8879C128.647 21.3893 128.978 20.2676 128.537 19.2703Z" fill="white" fill-opacity="0.1"/>
<path d="M122.797 35.8521C122.356 34.8548 121.362 34.4805 120.48 34.9791C119.597 35.4778 119.266 36.6006 119.707 37.5979C120.148 38.5952 121.142 38.9695 122.025 38.4709C122.908 37.9722 123.238 36.725 122.797 35.8521Z" fill="white" fill-opacity="0.1"/>
<path d="M116.839 52.8101C116.398 51.8128 115.294 51.4385 114.411 51.9371C113.528 52.4358 113.197 53.683 113.638 54.6803C114.079 55.6776 115.183 56.0519 116.067 55.5532C116.949 55.0546 117.281 53.8074 116.839 52.8101Z" fill="white" fill-opacity="0.1"/>
<path d="M110.657 70.6408C110.216 69.6435 109.112 69.2692 108.23 69.7678C107.347 70.2665 107.016 71.5137 107.457 72.511C107.898 73.5083 109.002 73.8826 109.885 73.3839C110.768 72.8853 111.099 71.6381 110.657 70.6408Z" fill="white" fill-opacity="0.1"/>
<path d="M104.147 89.0927C103.706 88.0954 102.602 87.7211 101.719 88.2197C100.836 88.7196 100.505 89.9656 100.946 90.9629C101.389 91.9614 102.491 92.3345 103.375 91.8358C104.257 91.3372 104.699 90.0912 104.147 89.0927Z" fill="white" fill-opacity="0.1"/>
<path d="M139.023 8.42194C138.582 7.54912 137.588 7.17508 136.816 7.67385C136.043 8.1725 135.712 9.29475 136.153 10.1675C136.594 11.0403 137.588 11.4143 138.361 10.9157C139.133 10.4169 139.354 9.29475 139.023 8.42194Z" fill="white" fill-opacity="0.1"/>
<path d="M133.724 24.7564C133.283 23.8835 132.289 23.5092 131.517 24.0078C130.744 24.5065 130.413 25.6281 130.854 26.5011C131.296 27.374 132.289 27.7483 133.062 27.2496C133.834 26.751 134.166 25.6281 133.724 24.7564Z" fill="white" fill-opacity="0.1"/>
<path d="M128.096 41.3395C127.654 40.3422 126.661 39.9679 125.778 40.4666C124.896 40.9652 124.565 42.0869 125.006 43.0854C125.447 44.0827 126.441 44.4557 127.323 43.9571C128.206 43.4584 128.537 42.3368 128.096 41.3395Z" fill="white" fill-opacity="0.1"/>
<path d="M122.356 58.7938C121.915 57.7965 120.811 57.4222 120.039 57.922C119.156 58.4207 118.825 59.6667 119.266 60.5397C119.707 61.537 120.811 61.9112 121.584 61.4126C122.466 60.9139 122.797 59.7923 122.356 58.7938Z" fill="white" fill-opacity="0.1"/>
<path d="M116.287 77.1239C115.846 76.1254 114.742 75.7523 113.859 76.251C112.976 76.7496 112.645 77.9956 113.087 78.9941C113.528 79.9914 114.632 80.3657 115.514 79.8671C116.397 79.3672 116.728 78.1212 116.287 77.1239Z" fill="white" fill-opacity="0.1"/>
<path d="M109.885 96.075C109.443 95.0777 108.34 94.7035 107.457 95.2033C106.575 95.7019 106.243 96.948 106.685 97.9465C107.126 98.9438 108.23 99.3169 109.112 98.8182C109.996 98.3196 110.327 97.0735 109.885 96.075Z" fill="white" fill-opacity="0.1"/>
<path d="M148.734 -2.17579C148.292 -3.04849 147.409 -3.42254 146.637 -2.92389C145.864 -2.42512 145.533 -1.42758 145.974 -0.554884C146.415 0.317932 147.299 0.691979 148.072 0.193329C148.844 -0.305439 149.175 -1.30298 148.734 -2.17579Z" fill="white" fill-opacity="0.1"/>
<path d="M143.989 14.1565C143.547 13.2836 142.554 12.9093 141.782 13.408C141.009 13.9066 140.678 15.0295 141.119 15.9024C141.56 16.7753 142.554 17.1484 143.327 16.6498C144.099 16.1511 144.319 15.1538 143.989 14.1565Z" fill="white" fill-opacity="0.1"/>
<path d="M138.8 30.6158C138.359 29.7428 137.366 29.3685 136.594 29.8672C135.821 30.3658 135.49 31.4887 135.931 32.3604C136.373 33.2334 137.366 33.6077 138.139 33.109C138.911 32.6104 139.243 31.4887 138.8 30.6158Z" fill="white" fill-opacity="0.1"/>
<path d="M133.393 47.5732C132.952 46.5759 131.958 46.326 131.076 46.7003C130.193 47.1989 129.972 48.3218 130.303 49.3191C130.744 50.3164 131.738 50.5651 132.621 50.192C133.503 49.5678 133.834 48.4462 133.393 47.5732Z" fill="white" fill-opacity="0.1"/>
<path d="M127.764 65.4027C127.322 64.4054 126.218 64.0311 125.446 64.5298C124.563 65.0284 124.232 66.2757 124.673 67.1486C125.116 68.1459 126.218 68.5202 126.991 68.0203C127.874 67.5217 128.206 66.4 127.764 65.4027Z" fill="white" fill-opacity="0.1"/>
<path d="M121.806 84.1054C121.365 83.1081 120.261 82.7338 119.378 83.2337C118.495 83.7323 118.165 84.9784 118.606 85.9757C119.047 86.9742 120.151 87.3472 121.033 86.8486C121.916 86.2256 122.247 85.1039 121.806 84.1054Z" fill="white" fill-opacity="0.1"/>
<path d="M115.515 103.557C115.073 102.56 113.97 102.186 113.086 102.684C112.204 103.183 111.872 104.43 112.314 105.428C112.756 106.425 113.86 106.799 114.742 106.301C115.625 105.802 115.956 104.555 115.515 103.557Z" fill="white" fill-opacity="0.1"/>
<path d="M153.589 4.18232C153.147 3.3095 152.265 2.93545 151.492 3.43422C150.72 3.93287 150.389 4.93041 150.83 5.80322C151.271 6.67604 152.154 7.05009 152.926 6.55132C153.699 6.17727 154.03 5.05513 153.589 4.18232Z" fill="white" fill-opacity="0.1"/>
<path d="M148.954 20.5158C148.513 19.6429 147.519 19.2698 146.746 19.7685C145.974 20.2671 145.643 21.2644 146.084 22.2617C146.526 23.1346 147.519 23.5089 148.291 23.0103C149.064 22.5116 149.395 21.3888 148.954 20.5158Z" fill="white" fill-opacity="0.1"/>
<path d="M143.988 37.0993C143.547 36.2263 142.553 35.8521 141.781 36.3507C141.008 36.8494 140.677 37.9722 141.119 38.8452C141.56 39.7181 142.553 40.0924 143.327 39.5925C144.099 39.0939 144.429 37.9722 143.988 37.0993Z" fill="white" fill-opacity="0.1"/>
<path d="M138.69 54.4313C138.248 53.5584 137.255 53.1841 136.373 53.6827C135.6 54.1814 135.269 55.3042 135.71 56.3015C136.151 57.1745 137.145 57.5476 138.028 57.0489C138.8 56.4259 139.131 55.3042 138.69 54.4313Z" fill="white" fill-opacity="0.1"/>
<path d="M133.172 72.5109C132.73 71.5136 131.738 71.1393 130.854 71.6379C129.972 72.1366 129.64 73.2594 130.082 74.2567C130.524 75.254 131.517 75.6283 132.399 75.1297C133.283 74.7554 133.614 73.5082 133.172 72.5109Z" fill="white" fill-opacity="0.1"/>
<path d="M127.214 91.587C126.772 90.5897 125.669 90.2155 124.786 90.7141C123.903 91.2128 123.572 92.46 124.013 93.4573C124.454 94.4546 125.558 94.8289 126.442 94.3302C127.324 93.8316 127.656 92.5843 127.214 91.587Z" fill="white" fill-opacity="0.1"/>
<path d="M158.557 11.2892C158.115 10.4164 157.232 10.1669 156.459 10.541C155.687 11.0398 155.467 12.0375 155.797 12.9105C156.239 13.7834 157.122 14.0321 157.894 13.6578C158.667 13.1592 158.888 12.0375 158.557 11.2892Z" fill="white" fill-opacity="0.1"/>
<path d="M153.92 27.6239C153.479 26.751 152.596 26.3767 151.824 26.8754C151.051 27.374 150.72 28.3725 151.161 29.2443C151.603 30.1172 152.486 30.4915 153.259 29.9928C154.031 29.6185 154.362 28.4969 153.92 27.6239Z" fill="white" fill-opacity="0.1"/>
<path d="M149.173 44.4559C148.731 43.583 147.739 43.2099 146.966 43.7085C146.194 44.2072 145.863 45.3288 146.304 46.2018C146.745 47.0747 147.739 47.449 148.511 46.9503C149.284 46.4517 149.504 45.3288 149.173 44.4559Z" fill="white" fill-opacity="0.1"/>
<path d="M143.988 62.0376C143.547 61.1647 142.553 60.7904 141.781 61.2891C141.008 61.7877 140.677 62.9094 141.119 63.7823C141.56 64.6552 142.553 65.0295 143.327 64.5309C144.099 64.0322 144.429 62.9094 143.988 62.0376Z" fill="white" fill-opacity="0.1"/>
<path d="M138.468 80.366C138.027 79.3687 137.033 78.9944 136.15 79.493C135.268 79.9917 134.937 81.1145 135.378 82.1118C135.819 83.1091 136.813 83.4834 137.695 82.9848C138.578 82.4861 138.909 81.2389 138.468 80.366Z" fill="white" fill-opacity="0.1"/>
<path d="M132.509 99.6914C132.068 98.6941 130.964 98.3198 130.192 98.8185C129.308 99.3171 128.977 100.564 129.419 101.437C129.861 102.435 130.964 102.809 131.737 102.31C132.619 101.812 132.951 100.564 132.509 99.6914Z" fill="white" fill-opacity="0.1"/>
<path d="M167.605 2.68559C167.274 1.81277 166.391 1.56345 165.619 1.93749C164.846 2.31154 164.625 3.30908 164.956 4.18189C165.288 5.05471 166.171 5.30403 166.944 4.92999C167.716 4.43122 168.046 3.4338 167.605 2.68559Z" fill="white" fill-opacity="0.1"/>
<path d="M163.521 19.0202C163.08 18.1473 162.197 17.8973 161.425 18.2716C160.652 18.7703 160.431 19.7676 160.762 20.6405C161.203 21.5134 162.087 21.7634 162.86 21.3891C163.632 20.8904 163.852 19.8931 163.521 19.0202Z" fill="white" fill-opacity="0.1"/>
<path d="M158.995 35.6033C158.554 34.7304 157.672 34.3561 156.899 34.8547C156.125 35.3546 155.795 36.3519 156.237 37.2248C156.678 38.0966 157.56 38.4708 158.333 37.9722C159.105 37.4735 159.437 36.4762 158.995 35.6033Z" fill="white" fill-opacity="0.1"/>
<path d="M154.25 52.5603C153.809 51.6873 152.815 51.3142 152.043 51.8129C151.27 52.3115 150.939 53.4332 151.38 54.3061C151.822 55.1791 152.815 55.5534 153.588 55.0547C154.36 54.5561 154.691 53.4332 154.25 52.5603Z" fill="white" fill-opacity="0.1"/>
<path d="M149.063 70.1405C148.622 69.2675 147.628 68.8944 146.855 69.3931C146.083 69.8917 145.752 71.0134 146.193 71.8863C146.635 72.7593 147.628 73.1336 148.4 72.6349C149.173 72.1363 149.504 71.0134 149.063 70.1405Z" fill="white" fill-opacity="0.1"/>
<path d="M143.544 88.5953C143.103 87.7223 142.109 87.348 141.227 87.8467C140.454 88.3453 140.123 89.4682 140.564 90.4655C141.006 91.3384 141.999 91.7127 142.882 91.2129C143.656 90.7142 143.986 89.4682 143.544 88.5953Z" fill="white" fill-opacity="0.1"/>
<path d="M172.681 11.2897C172.35 10.5416 171.468 10.1676 170.695 10.5416C170.033 10.9157 169.701 11.9135 170.033 12.7864C170.364 13.5338 171.246 13.9081 172.019 13.5338C172.791 13.1595 173.013 12.1622 172.681 11.2897Z" fill="white" fill-opacity="0.1"/>
<path d="M168.599 27.7473C168.267 26.8744 167.274 26.6256 166.612 26.9999C165.84 27.3742 165.619 28.4959 165.95 29.2444C166.281 30.1162 167.274 30.3661 167.936 29.9918C168.599 29.6175 168.93 28.6202 168.599 27.7473Z" fill="white" fill-opacity="0.1"/>
<path d="M164.072 44.4562C163.631 43.5833 162.748 43.3334 161.976 43.7077C161.203 44.2063 160.982 45.2036 161.313 46.0765C161.755 46.9495 162.637 47.1994 163.41 46.8251C164.182 46.3265 164.513 45.3292 164.072 44.4562Z" fill="white" fill-opacity="0.1"/>
<path d="M159.216 61.289C158.774 60.416 157.891 60.0418 157.119 60.5404C156.346 61.0391 156.015 62.0364 156.456 62.9093C156.897 63.7822 157.781 64.1565 158.554 63.6579C159.326 63.1592 159.657 62.1607 159.216 61.289Z" fill="white" fill-opacity="0.1"/>
<path d="M154.029 78.7446C153.588 77.8717 152.595 77.4986 151.822 77.9972C151.049 78.4959 150.719 79.6175 151.16 80.4905C151.602 81.3634 152.595 81.7377 153.368 81.239C154.14 80.7404 154.47 79.6175 154.029 78.7446Z" fill="white" fill-opacity="0.1"/>
<path d="M148.402 97.3236C147.961 96.4507 146.967 96.0764 146.194 96.5751C145.422 97.0737 145.092 98.1966 145.533 99.0695C145.974 99.9413 146.967 100.316 147.739 99.8169C148.513 99.3182 148.843 98.1966 148.402 97.3236Z" fill="white" fill-opacity="0.1"/>
<path d="M181.51 4.43252C181.178 3.68442 180.296 3.31038 179.633 3.80914C178.971 4.18319 178.64 5.18061 179.081 5.92882C179.412 6.67692 180.296 7.05096 180.957 6.55219C181.62 6.05343 181.841 5.18061 181.51 4.43252Z" fill="white" fill-opacity="0.1"/>
<path d="M177.758 20.8905C177.427 20.142 176.544 19.7677 175.771 20.142C175.11 20.5162 174.779 21.5135 175.11 22.3865C175.44 23.135 176.324 23.5081 177.096 23.135C177.869 22.6364 178.2 21.6379 177.758 20.8905Z" fill="white" fill-opacity="0.1"/>
<path d="M173.674 37.3492C173.343 36.4762 172.35 36.2263 171.688 36.6006C170.915 36.9749 170.694 38.0977 171.025 38.8451C171.356 39.7181 172.35 39.968 173.012 39.5937C173.785 39.2194 174.005 38.0977 173.674 37.3492Z" fill="white" fill-opacity="0.1"/>
<path d="M169.037 53.6817C168.596 52.8088 167.712 52.5601 166.94 52.9344C166.167 53.433 165.947 54.4303 166.277 55.3032C166.72 56.1762 167.602 56.4249 168.375 56.0506C169.147 55.552 169.369 54.4303 169.037 53.6817Z" fill="white" fill-opacity="0.1"/>
<path d="M164.072 70.2664C163.63 69.3935 162.748 69.0192 161.975 69.5178C161.203 70.0165 160.872 71.0138 161.313 71.8867C161.754 72.7596 162.638 73.1339 163.41 72.6353C164.183 72.1366 164.403 71.0138 164.072 70.2664Z" fill="white" fill-opacity="0.1"/>
<path d="M158.775 87.5979C158.334 86.725 157.34 86.3507 156.568 86.8494C155.795 87.348 155.464 88.4697 155.906 89.3426C156.348 90.2156 157.34 90.5898 158.113 90.0912C158.886 89.5925 159.106 88.4697 158.775 87.5979Z" fill="white" fill-opacity="0.1"/>
<path d="M190.119 -1.67706C189.788 -2.42515 189.016 -2.67448 188.353 -2.30043C187.691 -1.92639 187.471 -1.05357 187.801 -0.305477C188.132 0.442617 188.905 0.692061 189.567 0.318014C190.229 -0.0560324 190.449 -1.05357 190.119 -1.67706Z" fill="white" fill-opacity="0.1"/>
<path d="M186.807 14.9054C186.476 14.1568 185.593 13.9081 184.931 14.2824C184.268 14.6567 184.048 15.654 184.379 16.4013C184.709 17.1499 185.593 17.3998 186.256 17.0255C186.917 16.6513 187.138 15.654 186.807 14.9054Z" fill="white" fill-opacity="0.1"/>
<path d="M182.945 31.2401C182.614 30.4915 181.731 30.1172 181.069 30.6159C180.406 30.9902 180.075 31.9875 180.517 32.736C180.847 33.4834 181.731 33.8577 182.394 33.359C183.055 32.9848 183.276 31.9875 182.945 31.2401Z" fill="white" fill-opacity="0.1"/>
<path d="M178.532 47.0738C178.201 46.3264 177.319 45.9521 176.546 46.3264C175.884 46.6995 175.552 47.698 175.884 48.5697C176.215 49.3183 177.097 49.6926 177.87 49.3183C178.642 48.944 178.864 47.9467 178.532 47.0738Z" fill="white" fill-opacity="0.1"/>
<path d="M173.674 62.9094C173.342 62.0364 172.35 61.7865 171.687 62.1608C170.915 62.5351 170.694 63.6567 171.025 64.4053C171.356 65.2782 172.35 65.5282 173.011 65.1539C173.674 64.7796 174.115 63.7823 173.674 62.9094Z" fill="white" fill-opacity="0.1"/>
<path d="M168.599 79.2431C168.157 78.3701 167.274 77.9959 166.501 78.4945C165.729 78.9932 165.397 79.9905 165.84 80.8634C166.281 81.7363 167.164 82.1106 167.936 81.612C168.709 81.2377 169.04 80.116 168.599 79.2431Z" fill="white" fill-opacity="0.1"/>
<path d="M163.301 96.5751C162.86 95.7022 161.976 95.3279 161.204 95.8265C160.431 96.3252 160.1 97.3225 160.541 98.1954C160.984 99.0684 161.866 99.4426 162.638 98.944C163.411 98.5697 163.742 97.448 163.301 96.5751Z" fill="white" fill-opacity="0.1"/>
<path d="M195.636 9.7934C195.304 9.0453 194.532 8.79598 193.869 9.17003C193.207 9.54407 192.987 10.4168 193.318 11.165C193.649 11.9125 194.422 12.1624 195.083 11.7881C195.746 11.2896 195.967 10.4168 195.636 9.7934Z" fill="white" fill-opacity="0.1"/>
<path d="M192.105 26.0027C191.774 25.2541 191.001 25.0054 190.339 25.3797C189.676 25.7539 189.456 26.6257 189.787 27.3743C190.117 28.1228 190.89 28.3716 191.552 27.9973C192.215 27.6242 192.436 26.7512 192.105 26.0027Z" fill="white" fill-opacity="0.1"/>
<path d="M187.801 41.4629C187.47 40.7156 186.587 40.3413 185.925 40.8399C185.262 41.2142 184.931 42.2115 185.373 42.9601C185.705 43.7074 186.587 44.0817 187.249 43.5831C187.911 43.2088 188.132 42.2115 187.801 41.4629Z" fill="white" fill-opacity="0.1"/>
<path d="M183.167 56.6748C182.836 55.9275 181.952 55.5532 181.18 56.0518C180.518 56.4261 180.187 57.4234 180.628 58.2963C180.96 59.0437 181.842 59.418 182.615 58.9194C183.277 58.4207 183.497 57.4234 183.167 56.6748Z" fill="white" fill-opacity="0.1"/>
<path d="M178.199 72.0107C177.869 71.1378 176.875 70.8891 176.212 71.2633C175.551 71.6364 175.22 72.7593 175.551 73.5067C175.881 74.3796 176.875 74.6295 177.537 74.2552C178.31 73.8809 178.53 72.8836 178.199 72.0107Z" fill="white" fill-opacity="0.1"/>
<path d="M173.011 88.2199C172.57 87.347 171.688 87.0983 170.915 87.4726C170.143 87.9712 169.921 88.9685 170.253 89.8414C170.694 90.7144 171.578 90.9631 172.35 90.59C173.123 90.0902 173.453 89.0929 173.011 88.2199Z" fill="white" fill-opacity="0.1"/>
<path d="M204.354 5.18039C204.023 4.55702 203.362 4.30757 202.699 4.55702C202.148 4.93106 201.927 5.67916 202.148 6.42725C202.478 7.05062 203.141 7.30007 203.803 7.05062C204.466 6.67658 204.686 5.80376 204.354 5.18039Z" fill="white" fill-opacity="0.1"/>
<path d="M201.043 21.2637C200.712 20.5163 199.939 20.2664 199.388 20.6407C198.726 21.0149 198.506 21.8879 198.836 22.5109C199.167 23.1339 199.939 23.5082 200.492 23.1339C201.154 22.8852 201.374 22.0122 201.043 21.2637Z" fill="white" fill-opacity="0.1"/>
<path d="M196.961 36.4751C196.63 35.7277 195.857 35.4778 195.196 35.8521C194.533 36.2264 194.312 37.0993 194.643 37.8467C194.975 38.5952 195.747 38.8452 196.41 38.4709C197.071 38.0966 197.292 37.0993 196.961 36.4751Z" fill="white" fill-opacity="0.1"/>
<path d="M192.326 51.0652C191.995 50.3167 191.112 50.0667 190.45 50.441C189.787 50.8153 189.567 51.8126 189.897 52.5612C190.228 53.3086 191.112 53.5585 191.773 53.1842C192.436 52.8099 192.767 51.8126 192.326 51.0652Z" fill="white" fill-opacity="0.1"/>
<path d="M187.468 65.7773C187.137 65.0287 186.254 64.6544 185.592 65.1543C184.931 65.6529 184.599 66.5247 185.041 67.2732C185.372 68.0218 186.254 68.3961 186.917 67.8963C187.579 67.3976 187.909 66.5247 187.468 65.7773Z" fill="white" fill-opacity="0.1"/>
<path d="M182.503 80.8645C182.172 80.116 181.289 79.7417 180.517 80.116C179.854 80.4902 179.523 81.4875 179.854 82.3605C180.186 83.109 181.069 83.4821 181.842 83.109C182.503 82.6104 182.834 81.6119 182.503 80.8645Z" fill="white" fill-opacity="0.1"/>
<path d="M177.206 96.698C176.875 95.825 175.881 95.5763 175.218 95.9506C174.557 96.3237 174.226 97.4465 174.557 98.1939C174.888 98.9425 175.881 99.3168 176.543 98.9425C177.316 98.5682 177.647 97.5709 177.206 96.698Z" fill="white" fill-opacity="0.1"/>
<path d="M210.894 2.21034C210.563 1.63158 210.711 0.859925 211.223 0.486835C211.736 0.113745 212.418 0.28056 212.748 0.859327C213.078 1.4381 212.931 2.20975 212.418 2.58284C211.907 2.95593 211.224 2.78923 210.894 2.21034Z" fill="white" fill-opacity="0.1"/>
<path d="M209.762 16.9015C209.431 16.2773 208.769 16.0286 208.217 16.4028C207.666 16.7771 207.444 17.5245 207.776 18.1487C208.107 18.7717 208.769 19.0205 209.321 18.6474C209.873 18.3974 210.093 17.5245 209.762 16.9015Z" fill="white" fill-opacity="0.1"/>
<path d="M205.79 31.7376C205.46 31.1134 204.687 30.7391 204.135 31.1134C203.584 31.4877 203.253 32.3607 203.584 32.9837C203.915 33.6079 204.687 33.981 205.239 33.6079C205.901 33.2336 206.121 32.485 205.79 31.7376Z" fill="white" fill-opacity="0.1"/>
<path d="M201.374 45.9518C201.043 45.2032 200.271 44.9545 199.608 45.3288C198.947 45.7018 198.726 46.5748 199.057 47.3234C199.388 48.0719 200.161 48.3207 200.823 47.9464C201.484 47.5721 201.706 46.7003 201.374 45.9518Z" fill="white" fill-opacity="0.1"/>
<path d="M196.518 59.9164C196.187 59.1678 195.414 58.9191 194.753 59.2922C194.09 59.6665 193.869 60.5394 194.2 61.288C194.532 62.0354 195.304 62.2853 195.967 61.911C196.628 61.5367 196.959 60.6638 196.518 59.9164Z" fill="white" fill-opacity="0.1"/>
<path d="M191.555 74.2551C191.223 73.5065 190.341 73.2578 189.678 73.6321C189.016 74.0052 188.795 75.0025 189.126 75.7511C189.457 76.4996 190.341 76.7484 191.002 76.3741C191.665 75.8754 191.886 75.0025 191.555 74.2551Z" fill="white" fill-opacity="0.1"/>
<path d="M186.476 89.0929C186.145 88.3456 185.262 87.9713 184.6 88.4699C183.937 88.8442 183.607 89.8415 184.049 90.5889C184.38 91.3375 185.262 91.7117 185.925 91.2131C186.586 90.8388 186.807 89.8415 186.476 89.0929Z" fill="white" fill-opacity="0.1"/>
<path d="M218.15 12.5365C217.929 11.9134 217.268 11.6639 216.715 12.0378C216.164 12.2877 215.943 13.0351 216.274 13.6593C216.495 14.2823 217.157 14.5311 217.709 14.158C218.26 13.908 218.37 13.1607 218.15 12.5365Z" fill="white" fill-opacity="0.1"/>
<path d="M214.397 27.1252C214.065 26.501 213.404 26.2523 212.852 26.6266C212.3 26.9997 212.079 27.7483 212.41 28.3713C212.742 28.9955 213.404 29.2442 213.955 28.8699C214.508 28.6212 214.728 27.7483 214.397 27.1252Z" fill="white" fill-opacity="0.1"/>
<path d="M210.093 40.9644C209.762 40.3414 209.099 40.0915 208.437 40.3414C207.886 40.7157 207.664 41.4631 207.886 42.2116C208.217 42.8347 208.878 43.0846 209.541 42.8347C210.203 42.4604 210.424 41.713 210.093 40.9644Z" fill="white" fill-opacity="0.1"/>
<path d="M205.347 54.5561C205.016 53.9319 204.243 53.5588 203.692 53.9319C203.141 54.3062 202.809 55.1791 203.141 55.8021C203.471 56.4263 204.243 56.8006 204.796 56.4263C205.458 56.052 205.678 55.1791 205.347 54.5561Z" fill="white" fill-opacity="0.1"/>
<path d="M200.493 68.146C200.161 67.3974 199.389 67.1487 198.726 67.523C198.064 67.8961 197.844 68.769 198.175 69.5176C198.506 70.2661 199.279 70.5149 199.94 70.1406C200.603 69.6419 200.824 68.769 200.493 68.146Z" fill="white" fill-opacity="0.1"/>
<path d="M195.415 82.1117C195.083 81.3631 194.311 81.1144 193.65 81.4875C192.987 81.8618 192.766 82.7347 193.097 83.4833C193.428 84.2307 194.201 84.4806 194.863 84.1063C195.526 83.732 195.746 82.8591 195.415 82.1117Z" fill="white" fill-opacity="0.1"/>
<path d="M187.639 97.7636C187.49 96.8847 187.999 96.0357 188.778 95.8671C189.556 95.6973 190.309 96.2736 190.458 97.1526C190.606 98.0327 190.097 98.8817 189.318 99.0503C188.54 99.2189 187.789 98.6425 187.639 97.7636Z" fill="white" fill-opacity="0.1"/>
<path d="M226.096 7.92373C225.875 7.42496 225.212 7.17563 224.771 7.42496C224.33 7.67428 224.109 8.4225 224.33 8.92114C224.55 9.41991 225.212 9.66924 225.654 9.41991C226.096 9.04587 226.316 8.4225 226.096 7.92373Z" fill="white" fill-opacity="0.1"/>
<path d="M222.565 22.3862C222.344 21.762 221.682 21.6376 221.13 21.8876C220.579 22.1363 220.467 22.8849 220.689 23.5079C220.91 24.1309 221.571 24.2564 222.124 24.0065C222.675 23.6322 222.896 22.8849 222.565 22.3862Z" fill="white" fill-opacity="0.1"/>
<path d="M218.48 36.1019C218.149 35.4777 217.597 35.229 217.045 35.6033C216.494 35.9764 216.272 36.6006 216.604 37.2236C216.935 37.8466 217.486 38.0965 218.039 37.7222C218.59 37.348 218.811 36.6006 218.48 36.1019Z" fill="white" fill-opacity="0.1"/>
<path d="M213.957 49.1937C213.625 48.5707 212.963 48.3219 212.41 48.695C211.859 49.0693 211.638 49.8179 211.969 50.4409C212.3 51.0651 212.963 51.3138 213.514 50.9396C214.067 50.6908 214.177 49.8179 213.957 49.1937Z" fill="white" fill-opacity="0.1"/>
<path d="M209.1 62.2868C208.769 61.6638 208.108 61.4139 207.446 61.6638C206.893 62.0369 206.673 62.7855 206.893 63.534C207.224 64.157 207.887 64.407 208.549 64.157C209.1 63.7828 209.432 63.0354 209.1 62.2868Z" fill="white" fill-opacity="0.1"/>
<path d="M204.022 75.6281C203.69 74.8795 202.918 74.6296 202.367 75.0039C201.704 75.3782 201.483 76.2511 201.814 76.8741C202.145 77.6227 202.918 77.8726 203.47 77.4983C204.132 77.1241 204.353 76.2511 204.022 75.6281Z" fill="white" fill-opacity="0.1"/>
<path d="M198.947 89.4672C198.616 88.7186 197.843 88.4699 197.182 88.8441C196.52 89.2172 196.298 90.0902 196.63 90.8387C196.961 91.5861 197.733 91.836 198.396 91.4617C199.058 91.0875 199.278 90.0902 198.947 89.4672Z" fill="white" fill-opacity="0.1"/>
<path d="M193.869 103.931C193.538 103.182 192.656 102.933 191.993 103.308C191.332 103.682 191.111 104.679 191.442 105.427C191.773 106.175 192.656 106.424 193.318 106.051C193.869 105.552 194.201 104.679 193.869 103.931Z" fill="white" fill-opacity="0.1"/>
<path d="M233.381 2.8103C233.16 2.31153 232.609 2.18681 232.168 2.43625C231.725 2.68557 231.615 3.30907 231.836 3.80783C232.056 4.30648 232.609 4.43121 233.05 4.18188C233.381 3.93244 233.601 3.30907 233.381 2.8103Z" fill="white" fill-opacity="0.1"/>
<path d="M230.289 17.2743C230.069 16.7757 229.516 16.5269 229.075 16.7757C228.634 17.0256 228.413 17.6486 228.634 18.1472C228.854 18.6459 229.406 18.8958 229.848 18.6459C230.4 18.3972 230.51 17.773 230.289 17.2743Z" fill="white" fill-opacity="0.1"/>
<path d="M226.426 30.8648C226.205 30.3661 225.544 30.1162 225.101 30.3661C224.66 30.6161 224.44 31.3634 224.66 31.8621C224.881 32.3607 225.544 32.6107 225.985 32.3607C226.536 32.112 226.757 31.3634 226.426 30.8648Z" fill="white" fill-opacity="0.1"/>
<path d="M222.123 43.833C221.903 43.2088 221.24 43.0844 220.688 43.3343C220.137 43.5831 220.027 44.3316 220.247 44.9547C220.468 45.5777 221.13 45.7032 221.682 45.4533C222.233 45.2046 222.344 44.456 222.123 43.833Z" fill="white" fill-opacity="0.1"/>
<path d="M217.379 56.6759C217.048 56.0517 216.385 55.803 215.834 56.1773C215.281 56.5515 215.061 57.2989 215.393 57.9231C215.724 58.5461 216.385 58.7949 216.938 58.4218C217.489 58.0475 217.71 57.2989 217.379 56.6759Z" fill="white" fill-opacity="0.1"/>
<path d="M212.413 69.3936C212.082 68.7694 211.419 68.5206 210.868 68.8949C210.316 69.2692 210.096 70.0166 210.427 70.6408C210.758 71.2638 211.419 71.5125 211.972 71.1394C212.523 70.8895 212.744 70.1409 212.413 69.3936Z" fill="white" fill-opacity="0.1"/>
<path d="M207.334 82.609C207.003 81.9859 206.34 81.736 205.678 81.9859C205.127 82.3602 204.905 83.1076 205.127 83.8562C205.347 84.6035 206.119 84.7291 206.782 84.4792C207.444 84.2305 207.664 83.232 207.334 82.609Z" fill="white" fill-opacity="0.1"/>
<path d="M202.258 96.1997C201.927 95.4523 201.155 95.2024 200.603 95.5767C199.941 95.951 199.721 96.8239 200.052 97.4469C200.382 98.1955 201.155 98.4442 201.707 98.0711C202.369 97.8212 202.59 96.9483 202.258 96.1997Z" fill="white" fill-opacity="0.1"/>
<path d="M237.351 11.6631C237.131 11.1644 236.689 11.0398 236.247 11.2891C235.806 11.5384 235.696 12.0378 235.916 12.5364C236.137 13.0351 236.579 13.1595 237.02 12.9095C237.351 12.6608 237.572 12.1622 237.351 11.6631Z" fill="white" fill-opacity="0.1"/>
<path d="M233.931 25.3792C233.71 24.8806 233.159 24.7562 232.717 25.0049C232.276 25.2549 232.165 25.8779 232.386 26.3765C232.606 26.8752 233.159 26.9995 233.6 26.7508C233.931 26.3765 234.151 25.7535 233.931 25.3792Z" fill="white" fill-opacity="0.1"/>
<path d="M229.849 38.3456C229.629 37.8469 229.076 37.5982 228.525 37.8469C228.084 38.0969 227.863 38.7199 228.084 39.3441C228.304 39.8427 228.856 40.0915 229.407 39.8427C229.849 39.4685 230.07 38.8454 229.849 38.3456Z" fill="white" fill-opacity="0.1"/>
<path d="M225.324 50.9384C225.102 50.4397 224.441 50.191 224 50.4397C223.557 50.6896 223.337 51.437 223.557 51.9357C223.779 52.4343 224.441 52.6842 224.882 52.4343C225.324 52.1856 225.545 51.437 225.324 50.9384Z" fill="white" fill-opacity="0.1"/>
<path d="M220.467 63.407C220.246 62.784 219.585 62.6597 219.033 62.9084C218.481 63.1583 218.371 63.9057 218.591 64.5299C218.812 65.1529 219.474 65.2773 220.026 65.0286C220.578 64.7786 220.799 64.0313 220.467 63.407Z" fill="white" fill-opacity="0.1"/>
<path d="M215.5 76.0011C215.169 75.3781 214.506 75.1282 213.955 75.5024C213.403 75.8767 213.183 76.6253 213.513 77.2483C213.844 77.8713 214.506 78.1213 215.059 77.747C215.5 77.3727 215.72 76.6253 215.5 76.0011Z" fill="white" fill-opacity="0.1"/>
<path d="M210.424 89.093C210.094 88.47 209.432 88.2212 208.879 88.5943C208.328 88.9686 208.107 89.7172 208.438 90.3402C208.769 90.9632 209.432 91.2131 209.983 90.8388C210.535 90.4646 210.645 89.7172 210.424 89.093Z" fill="white" fill-opacity="0.1"/>
<path d="M205.347 102.559C205.016 101.936 204.243 101.562 203.692 101.936C203.141 102.309 202.809 103.182 203.141 103.806C203.471 104.429 204.243 104.804 204.796 104.429C205.458 104.055 205.678 103.308 205.347 102.559Z" fill="white" fill-opacity="0.1"/>
<path d="M243.642 5.80358C243.421 5.42953 242.98 5.30493 242.648 5.42953C242.317 5.67898 242.207 6.17763 242.317 6.55167C242.538 6.92572 242.98 7.05044 243.311 6.92572C243.752 6.6764 243.863 6.17763 243.642 5.80358Z" fill="white" fill-opacity="0.1"/>
<path d="M240.664 19.3946C240.442 19.0203 240.001 18.7704 239.67 19.0203C239.339 19.269 239.119 19.7689 239.339 20.142C239.56 20.5162 240.001 20.7662 240.332 20.5162C240.774 20.3919 240.884 19.8932 240.664 19.3946Z" fill="white" fill-opacity="0.1"/>
<path d="M237.022 32.4863C236.801 31.9876 236.36 31.8633 235.919 32.112C235.477 32.3619 235.366 32.8606 235.587 33.3592C235.809 33.8579 236.25 33.9822 236.691 33.7335C237.022 33.4836 237.242 32.9849 237.022 32.4863Z" fill="white" fill-opacity="0.1"/>
<path d="M232.828 45.0792C232.607 44.5794 232.056 44.455 231.615 44.705C231.173 44.9537 231.062 45.5779 231.283 46.0765C231.505 46.5752 232.056 46.6995 232.497 46.4508C232.828 46.2009 233.05 45.5779 232.828 45.0792Z" fill="white" fill-opacity="0.1"/>
<path d="M228.191 57.4247C227.971 56.9261 227.419 56.6761 226.867 56.9261C226.426 57.1748 226.205 57.799 226.426 58.422C226.646 58.9207 227.199 59.1706 227.75 58.9207C228.191 58.5464 228.412 57.9234 228.191 57.4247Z" fill="white" fill-opacity="0.1"/>
<path d="M223.228 69.7675C223.006 69.2688 222.344 69.0189 221.903 69.2688C221.461 69.5176 221.24 70.2661 221.461 70.7648C221.681 71.2634 222.344 71.5134 222.785 71.2634C223.338 71.0135 223.558 70.2661 223.228 69.7675Z" fill="white" fill-opacity="0.1"/>
<path d="M218.259 82.2364C218.039 81.6134 217.376 81.3635 216.824 81.7378C216.273 81.9865 216.052 82.7351 216.383 83.3581C216.604 83.9823 217.266 84.231 217.818 83.858C218.37 83.608 218.48 82.8595 218.259 82.2364Z" fill="white" fill-opacity="0.1"/>
<path d="M213.185 95.2023C212.854 94.5793 212.192 94.3293 211.75 94.7036C211.198 95.0779 210.978 95.8253 211.309 96.3239C211.639 96.9481 212.302 97.1969 212.743 96.8238C213.295 96.5739 213.515 95.8253 213.185 95.2023Z" fill="white" fill-opacity="0.1"/>
<path d="M249.271 -0.555709C249.161 -0.929756 248.72 -1.05448 248.389 -0.805033C248.058 -0.680431 247.948 -0.181662 248.169 0.192385C248.279 0.566431 248.72 0.691034 249.051 0.441709C249.271 0.316987 249.382 -0.181662 249.271 -0.555709Z" fill="white" fill-opacity="0.1"/>
<path d="M246.844 13.2839C246.623 12.9097 246.292 12.7853 245.961 12.9097C245.63 13.1596 245.52 13.5339 245.63 13.9081C245.851 14.2812 246.182 14.4068 246.512 14.2812C246.844 14.0325 246.955 13.6582 246.844 13.2839Z" fill="white" fill-opacity="0.1"/>
<path d="M243.645 26.377C243.424 26.0027 242.982 25.8783 242.651 26.0027C242.32 26.2526 242.21 26.7512 242.32 27.1255C242.541 27.4986 242.982 27.6242 243.314 27.4986C243.645 27.2499 243.755 26.7512 243.645 26.377Z" fill="white" fill-opacity="0.1"/>
<path d="M239.781 39.0955C239.56 38.7212 239.119 38.4713 238.678 38.7212C238.346 38.9699 238.125 39.4686 238.346 39.9684C238.566 40.3415 239.009 40.5915 239.45 40.3415C239.781 39.9684 239.891 39.4686 239.781 39.0955Z" fill="white" fill-opacity="0.1"/>
<path d="M235.366 51.3142C235.145 50.8156 234.704 50.69 234.262 50.9399C233.821 51.1886 233.71 51.6873 233.931 52.1871C234.151 52.6858 234.594 52.8101 235.035 52.5602C235.476 52.4359 235.586 51.8128 235.366 51.3142Z" fill="white" fill-opacity="0.1"/>
<path d="M230.731 63.5337C230.51 63.035 229.959 62.7851 229.516 63.1594C229.075 63.4081 228.855 64.0323 229.186 64.531C229.406 65.0296 229.959 65.2783 230.4 64.9052C230.841 64.531 230.951 64.0323 230.731 63.5337Z" fill="white" fill-opacity="0.1"/>
<path d="M225.764 75.6268C225.544 75.1282 224.991 74.8795 224.44 75.1282C223.998 75.3781 223.778 76.0011 223.998 76.6253C224.219 77.124 224.77 77.3727 225.323 77.124C225.874 76.8741 225.985 76.2511 225.764 75.6268Z" fill="white" fill-opacity="0.1"/>
<path d="M220.798 88.0957C220.577 87.5971 219.915 87.3472 219.473 87.5971C219.032 87.8458 218.812 88.5944 219.032 89.093C219.253 89.5917 219.915 89.8416 220.357 89.5917C220.798 89.343 221.018 88.7188 220.798 88.0957Z" fill="white" fill-opacity="0.1"/>
<path d="M215.723 100.939C215.502 100.316 214.839 100.191 214.288 100.44C213.735 100.69 213.625 101.437 213.847 102.062C214.067 102.685 214.729 102.809 215.282 102.56C215.833 102.186 216.054 101.563 215.723 100.939Z" fill="white" fill-opacity="0.1"/>
<path d="M252.252 6.80117C252.141 6.42713 251.81 6.30252 251.48 6.55185C251.148 6.67657 251.037 7.05062 251.258 7.42466C251.368 7.79871 251.7 7.92331 252.031 7.67399C252.252 7.54927 252.362 7.17522 252.252 6.80117Z" fill="white" fill-opacity="0.1"/>
<path d="M249.493 20.0174C249.382 19.6431 248.941 19.5187 248.61 19.7687C248.279 19.893 248.169 20.3917 248.389 20.7659C248.499 21.139 248.941 21.2646 249.271 21.0147C249.493 20.7659 249.603 20.3917 249.493 20.0174Z" fill="white" fill-opacity="0.1"/>
<path d="M246.072 32.8605C245.852 32.4862 245.521 32.3618 245.19 32.4862C244.858 32.7361 244.748 33.1104 244.858 33.4835C245.08 33.8578 245.411 33.9833 245.741 33.8578C246.183 33.6091 246.293 33.2348 246.072 32.8605Z" fill="white" fill-opacity="0.1"/>
<path d="M242.097 45.2035C241.876 44.8293 241.435 44.5793 241.104 44.8293C240.774 45.078 240.552 45.5778 240.774 45.9509C240.994 46.3252 241.435 46.5751 241.766 46.3252C242.207 46.0765 242.318 45.5778 242.097 45.2035Z" fill="white" fill-opacity="0.1"/>
<path d="M237.683 57.2988C237.462 56.9257 237.021 56.6758 236.58 56.9257C236.248 57.1744 236.027 57.6731 236.248 58.1717C236.468 58.546 236.911 58.7959 237.352 58.546C237.683 58.2973 237.903 57.6731 237.683 57.2988Z" fill="white" fill-opacity="0.1"/>
<path d="M232.938 69.2676C232.716 68.7689 232.275 68.6434 231.834 68.8933C231.393 69.1432 231.281 69.6419 231.503 70.1405C231.724 70.6392 232.165 70.7635 232.606 70.5148C232.938 70.3892 233.158 69.7662 232.938 69.2676Z" fill="white" fill-opacity="0.1"/>
<path d="M227.971 81.3623C227.75 80.8636 227.199 80.7392 226.758 80.988C226.316 81.2379 226.205 81.8609 226.426 82.3596C226.648 82.8582 227.199 82.9838 227.64 82.7338C228.081 82.4839 228.193 81.8609 227.971 81.3623Z" fill="white" fill-opacity="0.1"/>
<path d="M223.007 93.7062C222.787 93.2076 222.234 92.9576 221.793 93.2076C221.352 93.4575 221.13 94.0805 221.352 94.5792C221.573 95.0778 222.124 95.3277 222.565 95.0778C223.118 94.9534 223.228 94.3292 223.007 93.7062Z" fill="white" fill-opacity="0.1"/>
<path d="M256.886 0.193088C256.775 -0.0562367 256.443 -0.180959 256.223 -0.0562367C256.002 0.0684854 255.892 0.442532 256.002 0.691857C256.113 0.941301 256.443 1.0659 256.665 0.941301C256.886 0.816579 256.996 0.567254 256.886 0.193088Z" fill="white" fill-opacity="0.1"/>
<path d="M254.679 13.5339C254.568 13.2852 254.238 13.1608 254.017 13.2852C253.796 13.4095 253.686 13.7838 253.796 14.0337C253.907 14.2825 254.238 14.4068 254.458 14.2825C254.789 14.2825 254.899 13.9082 254.679 13.5339Z" fill="white" fill-opacity="0.1"/>
<path d="M251.808 26.5009C251.697 26.1266 251.366 26.0022 251.036 26.2522C250.705 26.3765 250.593 26.7508 250.815 27.1251C250.925 27.4982 251.256 27.6238 251.587 27.3738C251.808 27.1251 251.918 26.7508 251.808 26.5009Z" fill="white" fill-opacity="0.1"/>
<path d="M248.279 38.9696C248.169 38.5953 247.726 38.471 247.396 38.7197C247.065 38.8452 246.954 39.3439 247.175 39.7182C247.396 40.0913 247.726 40.2168 248.057 39.9669C248.279 39.7182 248.389 39.2195 248.279 38.9696Z" fill="white" fill-opacity="0.1"/>
<path d="M244.195 51.0637C243.974 50.6894 243.642 50.5651 243.311 50.6894C242.98 50.9382 242.87 51.3125 242.98 51.6867C243.201 52.061 243.532 52.1854 243.864 52.061C244.195 51.9367 244.305 51.4368 244.195 51.0637Z" fill="white" fill-opacity="0.1"/>
<path d="M239.669 63.0339C239.449 62.6597 239.007 62.5353 238.676 62.6597C238.345 62.9096 238.235 63.4082 238.345 63.7825C238.565 64.1568 239.007 64.2812 239.338 64.1568C239.669 63.9069 239.89 63.4082 239.669 63.0339Z" fill="white" fill-opacity="0.1"/>
<path d="M234.923 74.8785C234.702 74.5054 234.261 74.2555 233.93 74.5054C233.598 74.7542 233.378 75.2528 233.598 75.6271C233.82 76.0014 234.261 76.2501 234.592 76.0014C234.923 75.8758 235.145 75.3772 234.923 74.8785Z" fill="white" fill-opacity="0.1"/>
<path d="M229.958 86.9728C229.738 86.4742 229.295 86.3498 228.854 86.5986C228.413 86.8485 228.303 87.3471 228.523 87.8458C228.744 88.3444 229.185 88.4688 229.626 88.2201C230.068 87.9701 230.179 87.4715 229.958 86.9728Z" fill="white" fill-opacity="0.1"/>
<path d="M225.104 99.1915C224.882 98.6928 224.331 98.5685 223.889 98.8184C223.447 99.0671 223.337 99.6913 223.559 100.19C223.779 100.689 224.331 100.813 224.772 100.563C225.104 100.314 225.324 99.6913 225.104 99.1915Z" fill="white" fill-opacity="0.1"/>
<path d="M259.203 7.05016C259.093 6.80084 258.872 6.67611 258.652 6.80084C258.431 6.92544 258.321 7.17488 258.431 7.42421C258.541 7.67353 258.762 7.79825 258.983 7.67353C259.313 7.67353 259.313 7.29948 259.203 7.05016Z" fill="white" fill-opacity="0.1"/>
<path d="M256.886 20.0173C256.775 19.7686 256.443 19.6442 256.223 19.7686C256.002 19.8929 255.892 20.2672 256.002 20.516C256.113 20.7659 256.443 20.8902 256.665 20.7659C256.886 20.6415 256.996 20.2672 256.886 20.0173Z" fill="white" fill-opacity="0.1"/>
<path d="M253.795 32.6102C253.685 32.3615 253.354 32.2359 253.134 32.3615C252.913 32.4858 252.803 32.8601 252.913 33.1089C253.023 33.3588 253.354 33.4831 253.575 33.3588C253.906 33.2332 254.016 32.8601 253.795 32.6102Z" fill="white" fill-opacity="0.1"/>
<path d="M250.153 44.8294C250.043 44.5806 249.712 44.4563 249.381 44.5806C249.159 44.705 249.049 45.0793 249.159 45.4536C249.271 45.7023 249.601 45.8279 249.932 45.7023C250.153 45.5779 250.263 45.2037 250.153 44.8294Z" fill="white" fill-opacity="0.1"/>
<path d="M245.96 56.7994C245.85 56.4251 245.409 56.3007 245.188 56.5506C244.856 56.675 244.746 57.1736 244.968 57.4224C245.078 57.7967 245.519 57.9222 245.74 57.6723C245.96 57.5479 246.071 57.1736 245.96 56.7994Z" fill="white" fill-opacity="0.1"/>
<path d="M241.435 68.6447C241.215 68.2704 240.884 68.146 240.552 68.2704C240.221 68.5203 240.111 68.8934 240.221 69.2677C240.332 69.642 240.774 69.7663 241.105 69.642C241.435 69.5176 241.546 69.0189 241.435 68.6447Z" fill="white" fill-opacity="0.1"/>
<path d="M236.693 80.4905C236.471 80.1162 236.03 79.9918 235.699 80.1162C235.368 80.3661 235.258 80.8648 235.368 81.2379C235.589 81.6121 236.03 81.7377 236.361 81.6121C236.693 81.3634 236.803 80.8648 236.693 80.4905Z" fill="white" fill-opacity="0.1"/>
<path d="M231.834 92.4605C231.614 92.0862 231.172 91.8363 230.84 92.0862C230.51 92.3349 230.289 92.8336 230.51 93.2079C230.73 93.5822 231.172 93.8321 231.503 93.5822C231.834 93.3322 231.944 92.8336 231.834 92.4605Z" fill="white" fill-opacity="0.1"/>
<path d="M263.176 0.690613C263.066 0.441169 262.846 0.441169 262.624 0.565891C262.403 0.690613 262.403 0.939938 262.514 1.18938C262.624 1.43871 262.846 1.43871 263.066 1.31398C263.176 1.18938 263.176 0.939938 263.176 0.690613Z" fill="white" fill-opacity="0.1"/>
<path d="M261.302 13.6579C261.191 13.408 260.971 13.408 260.749 13.408C260.528 13.5336 260.528 13.7823 260.528 14.0322C260.639 14.281 260.859 14.281 261.081 14.281C261.302 14.1566 261.412 13.9067 261.302 13.6579Z" fill="white" fill-opacity="0.1"/>
<path d="M258.763 26.3768C258.653 26.1269 258.432 26.0025 258.212 26.1269C257.99 26.2512 257.88 26.5012 257.99 26.7511C258.1 26.9998 258.322 27.1242 258.542 26.9998C258.763 26.8754 258.873 26.6255 258.763 26.3768Z" fill="white" fill-opacity="0.1"/>
<path d="M255.564 38.721C255.454 38.4711 255.122 38.3467 254.902 38.4711C254.681 38.5966 254.571 38.9709 254.681 39.2197C254.791 39.4696 255.122 39.5939 255.344 39.4696C255.564 39.344 255.674 38.9709 255.564 38.721Z" fill="white" fill-opacity="0.1"/>
<path d="M251.809 50.6898C251.697 50.4411 251.366 50.3155 251.146 50.4411C250.925 50.5654 250.815 50.9397 250.925 51.1884C251.035 51.4384 251.366 51.5627 251.587 51.4384C251.809 51.4384 251.919 51.0641 251.809 50.6898Z" fill="white" fill-opacity="0.1"/>
<path d="M247.506 62.5351C247.396 62.2852 247.065 62.1609 246.733 62.2852C246.513 62.4108 246.402 62.7839 246.513 63.1582C246.623 63.4081 246.955 63.5324 247.286 63.4081C247.506 63.2825 247.617 62.9094 247.506 62.5351Z" fill="white" fill-opacity="0.1"/>
<path d="M242.98 74.2568C242.87 73.8825 242.429 73.7569 242.207 74.0068C241.876 74.1312 241.766 74.6298 241.987 74.8798C242.097 75.2541 242.539 75.3784 242.76 75.1285C242.98 74.8798 243.091 74.6298 242.98 74.2568Z" fill="white" fill-opacity="0.1"/>
<path d="M238.235 86.101C238.125 85.7267 237.684 85.6023 237.353 85.851C237.021 85.9766 236.91 86.4752 237.131 86.8495C237.241 87.2226 237.684 87.3482 238.014 87.0982C238.235 86.8495 238.345 86.3509 238.235 86.101Z" fill="white" fill-opacity="0.1"/>
<path d="M233.381 97.9452C233.16 97.5709 232.829 97.4465 232.499 97.5709C232.168 97.8208 232.056 98.1939 232.168 98.5682C232.388 98.9425 232.719 99.0669 233.05 98.9425C233.381 98.8181 233.601 98.3195 233.381 97.9452Z" fill="white" fill-opacity="0.1"/>
<path d="M265.163 7.54841C265.053 7.29908 264.832 7.29908 264.612 7.42368C264.391 7.54841 264.391 7.79773 264.501 8.04705C264.612 8.29638 264.832 8.29638 265.053 8.17178C265.163 7.92245 265.273 7.67301 265.163 7.54841Z" fill="white" fill-opacity="0.1"/>
<path d="M263.177 20.2672C263.067 20.0173 262.846 20.0173 262.625 20.1417C262.405 20.2672 262.405 20.5159 262.515 20.7659C262.625 21.0146 262.846 21.0146 263.067 20.8902C263.177 20.6403 263.287 20.3916 263.177 20.2672Z" fill="white" fill-opacity="0.1"/>
<path d="M260.418 32.6107C260.307 32.362 260.087 32.362 259.866 32.4864C259.646 32.6107 259.646 32.8606 259.646 33.1094C259.756 33.3593 259.977 33.3593 260.197 33.2349C260.418 33.1094 260.528 32.8606 260.418 32.6107Z" fill="white" fill-opacity="0.1"/>
<path d="M256.996 44.8294C256.886 44.5806 256.666 44.4563 256.445 44.5806C256.224 44.705 256.114 44.9549 256.224 45.2036C256.335 45.4536 256.555 45.5779 256.776 45.4536C257.107 45.328 257.107 45.0793 256.996 44.8294Z" fill="white" fill-opacity="0.1"/>
<path d="M253.133 56.6759C253.023 56.426 252.692 56.3016 252.471 56.426C252.251 56.5504 252.14 56.9247 252.251 57.1746C252.361 57.4233 252.692 57.5489 252.912 57.4233C253.133 57.2989 253.243 56.9247 253.133 56.6759Z" fill="white" fill-opacity="0.1"/>
<path d="M248.83 68.3949C248.72 68.1461 248.389 68.0218 248.169 68.1461C247.947 68.2705 247.837 68.6448 247.947 68.8935C248.057 69.1434 248.389 69.2678 248.61 69.1434C248.83 69.0191 248.941 68.6448 248.83 68.3949Z" fill="white" fill-opacity="0.1"/>
<path d="M244.306 79.9915C244.195 79.7428 243.864 79.6172 243.534 79.7428C243.312 79.8671 243.202 80.2414 243.312 80.6145C243.422 80.8644 243.754 80.9888 244.085 80.8644C244.306 80.6145 244.416 80.3658 244.306 79.9915Z" fill="white" fill-opacity="0.1"/>
<path d="M239.56 91.7117C239.45 91.3374 239.009 91.2131 238.787 91.463C238.456 91.5874 238.346 92.086 238.567 92.3347C238.677 92.709 239.119 92.8346 239.34 92.5846C239.56 92.4603 239.671 91.9616 239.56 91.7117Z" fill="white" fill-opacity="0.1"/>
<path d="M268.474 1.56415C268.364 1.31483 268.143 1.31483 267.923 1.43943C267.702 1.56415 267.702 1.81348 267.812 2.0628C267.923 2.31213 268.143 2.31213 268.364 2.18752C268.584 2.0628 268.584 1.81348 268.474 1.56415Z" fill="white" fill-opacity="0.1"/>
<path d="M267.041 14.2825C266.929 14.0337 266.709 14.0337 266.488 14.1581C266.268 14.2825 266.268 14.5324 266.378 14.7811C266.488 15.031 266.709 15.031 266.929 14.9067C267.041 14.7811 267.151 14.5324 267.041 14.2825Z" fill="white" fill-opacity="0.1"/>
<path d="M264.831 26.7507C264.721 26.5008 264.5 26.5008 264.28 26.6252C264.059 26.7507 264.059 26.9995 264.17 27.2494C264.28 27.4981 264.5 27.4981 264.721 27.3738C264.831 27.2494 264.831 26.9995 264.831 26.7507Z" fill="white" fill-opacity="0.1"/>
<path d="M261.851 38.9698C261.74 38.7199 261.52 38.7199 261.299 38.8454C261.078 38.9698 261.078 39.2197 261.189 39.4684C261.299 39.7184 261.52 39.7184 261.74 39.5928C261.851 39.4684 261.962 39.2197 261.851 38.9698Z" fill="white" fill-opacity="0.1"/>
<path d="M258.321 50.9395C258.211 50.6895 257.99 50.6895 257.768 50.8139C257.548 50.9395 257.548 51.1882 257.658 51.4381C257.768 51.6868 257.99 51.6868 258.211 51.5625C258.321 51.4381 258.431 51.1882 258.321 50.9395Z" fill="white" fill-opacity="0.1"/>
<path d="M254.349 62.6599C254.238 62.4099 254.018 62.2856 253.797 62.4099C253.576 62.5355 253.466 62.7842 253.576 63.0342C253.687 63.2829 253.907 63.4084 254.128 63.2829C254.349 63.1585 254.46 62.9098 254.349 62.6599Z" fill="white" fill-opacity="0.1"/>
<path d="M250.044 74.2567C249.934 74.0068 249.603 73.8824 249.492 74.0068C249.272 74.1323 249.162 74.5054 249.272 74.631C249.382 74.8797 249.713 75.0041 249.823 74.8797C250.044 74.8797 250.154 74.5054 250.044 74.2567Z" fill="white" fill-opacity="0.1"/>
<path d="M245.408 85.8513C245.297 85.6026 244.966 85.4782 244.746 85.6026C244.525 85.7269 244.415 86.1012 244.525 86.3499C244.636 86.5999 244.966 86.7242 245.187 86.5999C245.408 86.4755 245.518 86.1012 245.408 85.8513Z" fill="white" fill-opacity="0.1"/>
<path d="M240.774 97.4483C240.664 97.1983 240.333 97.074 240.111 97.1983C239.891 97.3239 239.78 97.697 239.891 97.9469C240.001 98.1956 240.333 98.3212 240.553 98.1956C240.774 98.0713 240.884 97.8226 240.774 97.4483Z" fill="white" fill-opacity="0.1"/>
<path d="M270.352 8.79496C270.242 8.54552 270.021 8.54564 269.799 8.67024C269.579 8.79496 269.579 9.04429 269.689 9.29361C269.799 9.54306 270.021 9.54306 270.242 9.41833C270.462 9.29361 270.462 8.91956 270.352 8.79496Z" fill="white" fill-opacity="0.1"/>
<path d="M268.695 21.2645C268.584 21.0146 268.364 21.0146 268.143 21.139C267.923 21.2645 267.923 21.5133 268.033 21.7632C268.143 22.0119 268.364 22.0119 268.584 21.8875C268.695 21.6376 268.695 21.3889 268.695 21.2645Z" fill="white" fill-opacity="0.1"/>
<path d="M266.267 33.483C266.157 33.2343 265.937 33.2343 265.716 33.3587C265.494 33.483 265.494 33.733 265.606 33.9817C265.716 34.2316 265.937 34.2316 266.157 34.106C266.267 33.9817 266.267 33.733 266.267 33.483Z" fill="white" fill-opacity="0.1"/>
<path d="M263.176 45.4531C263.066 45.2032 262.846 45.2032 262.624 45.3288C262.403 45.4531 262.403 45.7019 262.514 45.9518C262.624 46.2005 262.846 46.2005 263.066 46.0762C263.176 45.9518 263.176 45.7019 263.176 45.4531Z" fill="white" fill-opacity="0.1"/>
<path d="M259.423 57.2987C259.312 57.05 259.092 57.05 258.871 57.1743C258.651 57.2987 258.651 57.5486 258.761 57.7974C258.871 58.0473 259.092 58.0473 259.312 57.9217C259.533 57.7974 259.533 57.5486 259.423 57.2987Z" fill="white" fill-opacity="0.1"/>
<path d="M255.342 68.8945C255.232 68.6446 255.011 68.6446 254.791 68.769C254.569 68.8945 254.569 69.1433 254.679 69.3932C254.791 69.6419 255.011 69.6419 255.232 69.5176C255.452 69.3932 255.452 69.1433 255.342 68.8945Z" fill="white" fill-opacity="0.1"/>
<path d="M251.037 80.3659C250.927 80.116 250.706 80.116 250.486 80.116C250.265 80.2416 250.265 80.4903 250.265 80.7402C250.375 80.989 250.596 80.989 250.816 80.989C251.037 80.8646 251.147 80.6159 251.037 80.3659Z" fill="white" fill-opacity="0.1"/>
<path d="M246.403 91.9605C246.292 91.7106 246.072 91.5862 245.851 91.7106C245.631 91.8362 245.52 92.0849 245.631 92.3348C245.741 92.5835 245.961 92.7091 246.182 92.5835C246.513 92.4592 246.513 92.0849 246.403 91.9605Z" fill="white" fill-opacity="0.1"/>
<path d="M273.219 3.68366C273.109 3.43421 272.888 3.43421 272.668 3.55894C272.447 3.68366 272.447 3.93298 272.558 4.18231C272.668 4.43175 272.888 4.43175 273.109 4.30703C273.331 4.05771 273.331 3.80826 273.219 3.68366Z" fill="white" fill-opacity="0.1"/>
<path d="M272.007 16.0271C271.896 15.7784 271.676 15.7784 271.454 15.9027C271.234 16.0271 271.234 16.277 271.344 16.5257C271.454 16.7757 271.676 16.7757 271.896 16.6513C272.117 16.5257 272.117 16.277 272.007 16.0271Z" fill="white" fill-opacity="0.1"/>
<path d="M270.129 28.2472C270.019 27.9973 269.798 27.9973 269.577 28.1216C269.357 28.2472 269.357 28.4959 269.467 28.7459C269.577 28.9946 269.798 28.9946 270.019 28.8702C270.129 28.7459 270.239 28.4959 270.129 28.2472Z" fill="white" fill-opacity="0.1"/>
<path d="M267.482 40.3413C267.372 40.0913 267.151 40.0913 266.93 40.2169C266.71 40.3413 266.71 40.59 266.82 40.8399C266.93 41.0898 267.151 41.0898 267.372 40.9643C267.482 40.8399 267.592 40.59 267.482 40.3413Z" fill="white" fill-opacity="0.1"/>
<path d="M264.282 52.1854C264.171 51.9367 263.951 51.9367 263.729 52.061C263.509 52.1854 263.509 52.4353 263.619 52.6852C263.729 52.934 263.951 52.934 264.171 52.8096C264.282 52.6852 264.392 52.4353 264.282 52.1854Z" fill="white" fill-opacity="0.1"/>
<path d="M260.53 63.7814C260.419 63.5315 260.198 63.5315 259.977 63.6571C259.757 63.7814 259.757 64.0314 259.867 64.2801C259.977 64.53 260.198 64.53 260.419 64.4045C260.53 64.2801 260.53 64.0314 260.53 63.7814Z" fill="white" fill-opacity="0.1"/>
<path d="M256.336 75.3781C256.224 75.1281 256.004 75.1281 255.783 75.2525C255.563 75.3781 255.563 75.6268 255.673 75.8767C255.783 76.1254 256.004 76.1254 256.224 76.0011C256.336 75.7523 256.446 75.5024 256.336 75.3781Z" fill="white" fill-opacity="0.1"/>
<path d="M251.92 86.7241C251.81 86.4741 251.589 86.4741 251.369 86.5997C251.147 86.7241 251.147 86.974 251.259 87.2227C251.369 87.4726 251.589 87.4726 251.81 87.3471C251.92 87.2227 252.031 86.974 251.92 86.7241Z" fill="white" fill-opacity="0.1"/>
<path d="M247.396 98.1963C247.286 97.9464 247.065 97.9464 246.845 98.0707C246.624 98.1963 246.624 98.445 246.734 98.6949C246.845 98.9437 247.065 98.9437 247.286 98.8193C247.396 98.6949 247.506 98.445 247.396 98.1963Z" fill="white" fill-opacity="0.1"/>
<path d="M275.095 11.2899C274.985 11.0406 274.764 11.0406 274.544 11.1652C274.323 11.2899 274.323 11.5393 274.433 11.7892C274.544 12.0379 274.764 12.0379 274.985 11.9135C275.095 11.7892 275.205 11.5393 275.095 11.2899Z" fill="white" fill-opacity="0.1"/>
<path d="M273.662 23.5094C273.551 23.2595 273.331 23.2595 273.109 23.385C272.889 23.5094 272.889 23.7581 272.999 24.0081C273.109 24.2568 273.331 24.2568 273.551 24.1324C273.662 24.0081 273.662 23.7581 273.662 23.5094Z" fill="white" fill-opacity="0.1"/>
<path d="M271.454 35.6037C271.344 35.3538 271.123 35.3538 270.903 35.4793C270.682 35.6037 270.682 35.8536 270.792 36.1024C270.903 36.3523 271.123 36.3523 271.344 36.2267C271.454 36.1024 271.564 35.8536 271.454 35.6037Z" fill="white" fill-opacity="0.1"/>
<path d="M268.583 47.4478C268.473 47.1978 268.252 47.1978 268.031 47.3222C267.811 47.4478 267.811 47.6965 267.921 47.9464C268.031 48.1951 268.252 48.1951 268.473 48.0708C268.693 47.9464 268.693 47.6965 268.583 47.4478Z" fill="white" fill-opacity="0.1"/>
<path d="M265.273 59.1693C265.162 58.9194 264.942 58.9194 264.721 59.0438C264.501 59.1693 264.501 59.418 264.611 59.668C264.721 59.9167 264.942 59.9167 265.162 59.7923C265.273 59.5424 265.383 59.2937 265.273 59.1693Z" fill="white" fill-opacity="0.1"/>
<path d="M261.411 70.6401C261.301 70.3902 261.08 70.3902 260.86 70.5158C260.638 70.6401 260.638 70.8889 260.75 71.1388C260.86 71.3875 261.08 71.3875 261.301 71.2632C261.411 71.1388 261.522 70.8889 261.411 70.6401Z" fill="white" fill-opacity="0.1"/>
<path d="M257.219 81.9865C257.109 81.7366 256.887 81.7366 256.666 81.8622C256.446 81.9865 256.446 82.2352 256.556 82.4852C256.666 82.7351 256.887 82.7351 257.109 82.6095C257.219 82.4852 257.329 82.2352 257.219 81.9865Z" fill="white" fill-opacity="0.1"/>
<path d="M252.805 93.332C252.694 93.0833 252.474 93.0833 252.252 93.2076C252.031 93.332 252.031 93.5819 252.142 93.8318C252.252 94.0806 252.474 94.0806 252.694 93.9562C252.805 93.8318 252.915 93.5819 252.805 93.332Z" fill="white" fill-opacity="0.1"/>
<path d="M277.747 7.17413C277.636 6.92469 277.415 6.92469 277.195 7.04941C276.974 7.17413 276.974 7.42346 277.084 7.6729C277.195 7.92223 277.415 7.92223 277.636 7.7975C277.747 7.54818 277.857 7.29874 277.747 7.17413Z" fill="white" fill-opacity="0.1"/>
<path d="M276.75 19.2688C276.64 19.0201 276.419 19.0201 276.198 19.1444C275.978 19.2688 275.978 19.5187 276.088 19.7674C276.198 20.0174 276.419 20.0174 276.64 19.893C276.75 19.7674 276.861 19.3944 276.75 19.2688Z" fill="white" fill-opacity="0.1"/>
<path d="M275.095 31.2385C274.985 30.9898 274.764 30.9898 274.544 31.1142C274.323 31.2385 274.323 31.4884 274.433 31.7372C274.544 31.9871 274.764 31.9871 274.985 31.8627C275.095 31.7372 275.205 31.4884 275.095 31.2385Z" fill="white" fill-opacity="0.1"/>
<path d="M272.667 43.0842C272.557 42.8343 272.337 42.8343 272.116 42.9599C271.895 43.0842 271.895 43.333 272.006 43.5829C272.116 43.8316 272.337 43.8316 272.557 43.7073C272.778 43.5829 272.778 43.333 272.667 43.0842Z" fill="white" fill-opacity="0.1"/>
<path d="M269.689 54.8058C269.578 54.5559 269.358 54.5559 269.137 54.6814C268.917 54.8058 268.917 55.0545 269.027 55.3044C269.137 55.5532 269.358 55.5532 269.578 55.4288C269.689 55.3044 269.799 55.0545 269.689 54.8058Z" fill="white" fill-opacity="0.1"/>
<path d="M266.157 66.2759C266.047 66.0272 265.826 66.0272 265.606 66.1515C265.385 66.2759 265.385 66.5258 265.495 66.7745C265.606 67.0244 265.826 67.0244 266.047 66.9001C266.157 66.7745 266.267 66.5258 266.157 66.2759Z" fill="white" fill-opacity="0.1"/>
<path d="M262.296 77.7457C262.185 77.497 261.964 77.497 261.743 77.6213C261.522 77.7457 261.522 77.9956 261.633 78.2455C261.743 78.4943 261.964 78.4943 262.185 78.3699C262.296 78.2455 262.406 77.9956 262.296 77.7457Z" fill="white" fill-opacity="0.1"/>
<path d="M258.101 89.0942C257.991 88.8443 257.769 88.8443 257.549 88.9698C257.328 89.0942 257.328 89.3441 257.439 89.5928C257.549 89.8428 257.769 89.8428 257.991 89.7172C258.101 89.4685 258.101 89.2185 258.101 89.0942Z" fill="white" fill-opacity="0.1"/>
<path d="M253.686 100.315C253.576 100.065 253.355 100.065 253.133 100.19C252.913 100.315 252.913 100.564 253.023 100.814C253.133 101.063 253.355 101.063 253.576 100.938C253.686 100.814 253.796 100.564 253.686 100.315Z" fill="white" fill-opacity="0.1"/>
<path d="M280.282 3.55867C280.172 3.30934 279.951 3.30934 279.73 3.43406C279.509 3.55867 279.509 3.80811 279.62 4.05743C279.73 4.30688 279.951 4.30688 280.172 4.18216C280.282 3.93283 280.282 3.68339 280.282 3.55867Z" fill="white" fill-opacity="0.1"/>
<path d="M279.62 15.404C279.51 15.1553 279.289 15.1553 279.068 15.2796C278.847 15.404 278.847 15.6539 278.958 15.9039C279.068 16.1526 279.289 16.1526 279.51 16.0282C279.73 15.9039 279.73 15.6539 279.62 15.404Z" fill="white" fill-opacity="0.1"/>
<path d="M278.407 27.3738C278.297 27.1251 278.076 27.1251 277.856 27.2494C277.635 27.3738 277.635 27.6237 277.745 27.8724C277.856 28.1223 278.076 28.1223 278.297 27.998C278.407 27.8736 278.518 27.6237 278.407 27.3738Z" fill="white" fill-opacity="0.1"/>
<path d="M276.53 39.2185C276.42 38.9697 276.198 38.9697 275.978 39.0941C275.757 39.2185 275.757 39.4684 275.868 39.7183C275.978 39.967 276.198 39.967 276.42 39.8427C276.53 39.7183 276.64 39.4684 276.53 39.2185Z" fill="white" fill-opacity="0.1"/>
<path d="M273.882 50.9395C273.772 50.6895 273.551 50.6895 273.331 50.8139C273.109 50.9395 273.109 51.1882 273.22 51.4381C273.331 51.6868 273.551 51.6868 273.772 51.5625C273.992 51.3137 273.992 51.0638 273.882 50.9395Z" fill="white" fill-opacity="0.1"/>
<path d="M270.792 62.411C270.681 62.1611 270.461 62.1611 270.239 62.2855C270.018 62.411 270.018 62.6597 270.129 62.9097C270.239 63.1584 270.461 63.1584 270.681 63.034C270.792 62.9097 270.902 62.6597 270.792 62.411Z" fill="white" fill-opacity="0.1"/>
<path d="M267.149 73.8821C267.039 73.6322 266.818 73.6322 266.598 73.7578C266.377 73.8821 266.377 74.1321 266.487 74.3808C266.598 74.6307 266.818 74.6307 267.039 74.5052C267.149 74.3808 267.259 74.0065 267.149 73.8821Z" fill="white" fill-opacity="0.1"/>
<path d="M263.177 85.1038C263.067 84.8538 262.846 84.8538 262.625 84.9794C262.405 85.1038 262.405 85.3525 262.515 85.6024C262.625 85.8511 262.846 85.8511 263.067 85.7268C263.177 85.6024 263.287 85.3525 263.177 85.1038Z" fill="white" fill-opacity="0.1"/>
<path d="M258.983 96.4493C258.873 96.2006 258.652 96.2006 258.432 96.325C258.211 96.4493 258.211 96.6993 258.321 96.948C258.432 97.1979 258.652 97.1979 258.873 97.0735C258.983 96.8236 259.093 96.5749 258.983 96.4493Z" fill="white" fill-opacity="0.1"/>
<path d="M282.491 0.441278C282.381 0.191953 282.16 0.191953 281.939 0.316675C281.719 0.441278 281.719 0.690722 281.829 0.940047C281.939 1.18937 282.16 1.18937 282.381 1.06477C282.602 0.940047 282.602 0.690722 282.491 0.441278Z" fill="white" fill-opacity="0.1"/>
<path d="M282.38 12.2879C282.269 12.0379 282.049 12.0379 281.828 12.1623C281.607 12.2879 281.607 12.5366 281.718 12.7865C281.828 13.0352 282.049 13.0352 282.269 12.9109C282.38 12.6609 282.49 12.4122 282.38 12.2879Z" fill="white" fill-opacity="0.1"/>
<path d="M281.498 24.0065C281.387 23.7577 281.167 23.7577 280.946 23.8821C280.725 24.0065 280.725 24.2564 280.835 24.5051C280.946 24.755 281.167 24.755 281.387 24.6307C281.608 24.5051 281.608 24.2564 281.498 24.0065Z" fill="white" fill-opacity="0.1"/>
<path d="M280.062 35.728C279.952 35.4781 279.731 35.4781 279.51 35.6025C279.29 35.728 279.29 35.9768 279.4 36.2267C279.51 36.4754 279.731 36.4754 279.952 36.3511C280.062 36.2267 280.173 35.9768 280.062 35.728Z" fill="white" fill-opacity="0.1"/>
<path d="M277.966 47.4478C277.856 47.1978 277.635 47.1978 277.414 47.3222C277.194 47.4478 277.194 47.6965 277.304 47.9464C277.414 48.1951 277.635 48.1951 277.856 48.0708C277.966 47.9464 277.966 47.6965 277.966 47.4478Z" fill="white" fill-opacity="0.1"/>
<path d="M275.208 59.0433C275.097 58.7946 274.877 58.7946 274.655 58.919C274.434 59.0433 274.434 59.2933 274.545 59.542C274.655 59.7919 274.877 59.7919 275.097 59.6663C275.208 59.4176 275.208 59.1677 275.208 59.0433Z" fill="white" fill-opacity="0.1"/>
<path d="M271.895 70.3905C271.785 70.1418 271.563 70.1418 271.343 70.2661C271.122 70.3905 271.122 70.6404 271.233 70.8892C271.343 71.1391 271.563 71.1391 271.785 71.0147C271.895 70.8892 272.006 70.6404 271.895 70.3905Z" fill="white" fill-opacity="0.1"/>
<path d="M268.145 81.7377C268.034 81.4878 267.814 81.4878 267.593 81.6134C267.373 81.7377 267.373 81.9865 267.483 82.2364C267.593 82.4863 267.814 82.4863 268.034 82.3607C268.256 82.2364 268.256 81.9865 268.145 81.7377Z" fill="white" fill-opacity="0.1"/>
<path d="M264.278 92.9589C264.168 92.709 263.947 92.709 263.727 92.8333C263.506 92.9589 263.506 93.2076 263.617 93.4575C263.727 93.7062 263.947 93.7062 264.168 93.5819C264.278 93.4575 264.278 93.2076 264.278 92.9589Z" fill="white" fill-opacity="0.1"/>
<path d="M284.918 9.54347C284.808 9.29415 284.587 9.29415 284.367 9.41875C284.146 9.54347 284.146 9.7928 284.256 10.0422C284.367 10.2916 284.587 10.2916 284.808 10.1668C284.918 10.0422 285.029 9.7928 284.918 9.54347Z" fill="white" fill-opacity="0.1"/>
<path d="M284.476 21.139C284.366 20.8903 284.145 20.8903 283.924 21.0147C283.703 21.139 283.703 21.389 283.814 21.6377C283.924 21.8876 284.145 21.8876 284.366 21.7632C284.476 21.6377 284.586 21.389 284.476 21.139Z" fill="white" fill-opacity="0.1"/>
<path d="M283.482 32.8606C283.372 32.6119 283.151 32.6119 282.93 32.7362C282.71 32.8606 282.71 33.1105 282.82 33.3592C282.93 33.6092 283.151 33.6092 283.372 33.4848C283.482 33.2349 283.593 32.9862 283.482 32.8606Z" fill="white" fill-opacity="0.1"/>
<path d="M281.718 44.4558C281.608 44.2059 281.387 44.2059 281.166 44.3315C280.946 44.4558 280.946 44.7045 281.056 44.9545C281.166 45.2032 281.387 45.2032 281.608 45.0788C281.829 44.9545 281.829 44.5802 281.718 44.4558Z" fill="white" fill-opacity="0.1"/>
<path d="M279.399 55.926C279.289 55.6773 279.068 55.6773 278.847 55.8017C278.627 55.926 278.627 56.1759 278.737 56.4247C278.847 56.6746 279.068 56.6746 279.289 56.549C279.51 56.4247 279.51 56.1759 279.399 55.926Z" fill="white" fill-opacity="0.1"/>
<path d="M276.53 67.3976C276.42 67.1489 276.198 67.1489 275.978 67.2732C275.757 67.3976 275.757 67.6475 275.868 67.8962C275.978 68.1462 276.198 68.1462 276.42 68.0218C276.53 67.8962 276.64 67.6475 276.53 67.3976Z" fill="white" fill-opacity="0.1"/>
<path d="M273.22 78.7443C273.109 78.4955 272.889 78.4955 272.668 78.6199C272.448 78.7443 272.448 78.9942 272.558 79.2429C272.668 79.4928 272.889 79.4928 273.109 79.3685C273.22 79.2429 273.33 78.9942 273.22 78.7443Z" fill="white" fill-opacity="0.1"/>
<path d="M269.468 89.9659C269.358 89.716 269.137 89.716 268.917 89.8415C268.696 89.9659 268.696 90.2146 268.806 90.4645C268.917 90.7145 269.137 90.7145 269.358 90.5889C269.468 90.4645 269.578 90.2146 269.468 89.9659Z" fill="white" fill-opacity="0.1"/>
<path d="M265.604 101.187C265.494 100.938 265.273 100.938 265.053 101.063C264.832 101.187 264.832 101.437 264.942 101.686C265.053 101.936 265.273 101.936 265.494 101.811C265.604 101.686 265.714 101.437 265.604 101.187Z" fill="white" fill-opacity="0.1"/>
<path d="M287.346 7.54841C287.236 7.29908 287.015 7.29908 286.795 7.42368C286.574 7.54841 286.574 7.79773 286.684 8.04705C286.795 8.29638 287.015 8.29638 287.236 8.17178C287.346 8.04705 287.457 7.79773 287.346 7.54841Z" fill="white" fill-opacity="0.1"/>
<path d="M287.346 18.8955C287.236 18.6456 287.015 18.6456 286.795 18.7712C286.574 18.8955 286.574 19.1442 286.684 19.3942C286.795 19.6429 287.015 19.6429 287.236 19.5185C287.346 19.3942 287.457 19.1442 287.346 18.8955Z" fill="white" fill-opacity="0.1"/>
<path d="M286.685 30.3662C286.574 30.1162 286.354 30.1162 286.133 30.2418C285.912 30.3662 285.912 30.6149 286.023 30.8648C286.133 31.1147 286.354 31.1147 286.574 30.9892C286.795 30.8648 286.795 30.6149 286.685 30.3662Z" fill="white" fill-opacity="0.1"/>
<path opacity="0.8" d="M285.471 41.836C285.361 41.5873 285.14 41.5873 284.919 41.7117C284.698 41.836 284.698 42.0859 284.809 42.3359C284.919 42.5846 285.14 42.5846 285.361 42.4602C285.471 42.3359 285.581 42.0859 285.471 41.836Z" fill="white"/>
<path d="M283.593 53.4327C283.482 53.1828 283.261 53.1828 283.041 53.3083C282.82 53.4327 282.82 53.6826 282.93 53.9313C283.041 54.1813 283.261 54.1813 283.482 54.0557C283.703 53.807 283.703 53.557 283.593 53.4327Z" fill="white" fill-opacity="0.1"/>
<path d="M281.166 64.78C281.056 64.5313 280.835 64.5313 280.614 64.6556C280.394 64.78 280.394 65.0299 280.504 65.2798C280.614 65.5286 280.835 65.5286 281.056 65.4042C281.276 65.2798 281.276 65.0299 281.166 64.78Z" fill="white" fill-opacity="0.1"/>
<path d="M278.187 76.1254C278.076 75.8755 277.856 75.8755 277.635 75.9998C277.414 76.1254 277.414 76.3741 277.525 76.624C277.635 76.8728 277.856 76.8728 278.076 76.7484C278.187 76.624 278.297 76.3741 278.187 76.1254Z" fill="white" fill-opacity="0.1"/>
<path d="M274.875 87.4727C274.764 87.2227 274.544 87.2227 274.323 87.3471C274.103 87.4727 274.103 87.7214 274.213 87.9713C274.323 88.22 274.544 88.22 274.764 88.0957C274.875 87.9713 274.985 87.597 274.875 87.4727Z" fill="white" fill-opacity="0.1"/>
<path d="M271.234 98.6941C271.123 98.4454 270.903 98.4454 270.682 98.5697C270.462 98.6941 270.462 98.944 270.572 99.1927C270.682 99.4427 270.903 99.4427 271.123 99.3171C271.234 99.1927 271.344 98.944 271.234 98.6941Z" fill="white" fill-opacity="0.1"/>
<path d="M289.773 6.05238C289.663 5.80305 289.442 5.80305 289.222 5.92778C289.001 6.05238 289.001 6.3017 289.111 6.55103C289.222 6.80047 289.442 6.80047 289.663 6.67575C289.773 6.55103 289.884 6.3017 289.773 6.05238Z" fill="white" fill-opacity="0.1"/>
<path d="M290.105 17.1499C289.995 16.9 289.774 16.9 289.553 17.0244C289.333 17.1499 289.333 17.3986 289.443 17.6486C289.553 17.8973 289.774 17.8973 289.995 17.7729C290.105 17.6486 290.216 17.3986 290.105 17.1499Z" fill="white" fill-opacity="0.1"/>
<path d="M289.885 28.4971C289.774 28.2472 289.553 28.2472 289.333 28.3715C289.112 28.4971 289.112 28.7458 289.222 28.9957C289.333 29.2445 289.553 29.2445 289.774 29.1201C289.995 28.9957 289.995 28.6214 289.885 28.4971Z" fill="white" fill-opacity="0.1"/>
<path d="M289.111 39.8427C289.001 39.594 288.78 39.594 288.56 39.7184C288.339 39.8427 288.339 40.0927 288.449 40.3426C288.56 40.5913 288.78 40.5913 289.001 40.4669C289.222 40.3426 289.222 40.0927 289.111 39.8427Z" fill="white" fill-opacity="0.1"/>
<path d="M287.788 51.1882C287.677 50.9395 287.456 50.9395 287.236 51.0639C287.015 51.1882 287.015 51.4382 287.125 51.6869C287.236 51.9368 287.456 51.9368 287.677 51.8124C287.788 51.6869 287.898 51.4382 287.788 51.1882Z" fill="white" fill-opacity="0.1"/>
<path d="M285.801 62.6598C285.691 62.4098 285.47 62.4098 285.249 62.5342C285.029 62.6598 285.029 62.9085 285.139 63.1584C285.249 63.2828 285.47 63.2828 285.691 63.2828C285.801 63.1584 285.912 62.9085 285.801 62.6598Z" fill="white" fill-opacity="0.1"/>
<path d="M283.264 74.0066C283.153 73.7579 282.933 73.7579 282.712 73.8822C282.491 74.0066 282.491 74.2565 282.601 74.5052C282.712 74.7552 282.933 74.7552 283.153 74.6308C283.264 74.5052 283.374 74.2565 283.264 74.0066Z" fill="white" fill-opacity="0.1"/>
<path d="M280.393 85.3527C280.283 85.1039 280.062 85.1039 279.841 85.2283C279.621 85.3527 279.621 85.6026 279.731 85.8513C279.841 86.1012 280.062 86.1012 280.283 85.9769C280.393 85.8513 280.393 85.6026 280.393 85.3527Z" fill="white" fill-opacity="0.1"/>
<path d="M277.082 96.6981C276.972 96.4494 276.751 96.4494 276.53 96.5738C276.31 96.6981 276.31 96.948 276.42 97.1968C276.53 97.4467 276.751 97.4467 276.972 97.3223C277.082 97.0724 277.193 96.8237 277.082 96.6981Z" fill="white" fill-opacity="0.1"/>
<path d="M292.201 5.17956C292.091 4.93023 291.87 4.93023 291.65 5.05496C291.429 5.17956 291.429 5.429 291.539 5.67833C291.65 5.92765 291.87 5.92765 292.091 5.80305C292.201 5.67833 292.312 5.429 292.201 5.17956Z" fill="white" fill-opacity="0.1"/>
<path d="M292.865 16.0271C292.754 15.7784 292.534 15.7784 292.313 15.9027C292.092 16.0271 292.092 16.277 292.203 16.5257C292.313 16.7757 292.534 16.7757 292.754 16.6513C292.865 16.5257 292.975 16.277 292.865 16.0271Z" fill="white" fill-opacity="0.1"/>
<path d="M293.085 27.1239C292.975 26.8752 292.754 26.8752 292.534 26.9995C292.313 27.1239 292.313 27.3738 292.423 27.6225C292.534 27.8725 292.754 27.8725 292.975 27.7481C293.085 27.4982 293.196 27.2483 293.085 27.1239Z" fill="white" fill-opacity="0.1"/>
<path d="M292.864 38.2213C292.754 37.9713 292.533 37.9713 292.312 38.0969C292.092 38.2213 292.092 38.4712 292.202 38.7199C292.312 38.9698 292.533 38.9698 292.754 38.8443C292.864 38.7199 292.864 38.4712 292.864 38.2213Z" fill="white" fill-opacity="0.1"/>
<path d="M291.981 49.5691C291.87 49.3192 291.65 49.3192 291.429 49.4435C291.208 49.5691 291.208 49.8178 291.319 50.0678C291.429 50.3165 291.65 50.3165 291.87 50.1921C291.981 50.0678 292.091 49.8178 291.981 49.5691Z" fill="white" fill-opacity="0.1"/>
<path d="M290.437 60.915C290.326 60.6651 290.106 60.6651 289.885 60.7895C289.664 60.915 289.664 61.1638 289.775 61.4137C289.885 61.6624 290.106 61.6624 290.326 61.5381C290.547 61.4137 290.547 61.1638 290.437 60.915Z" fill="white" fill-opacity="0.1"/>
<path d="M288.45 72.2606C288.34 72.0107 288.119 72.0107 287.899 72.1351C287.678 72.2606 287.678 72.5094 287.788 72.7593C287.899 73.008 288.119 73.008 288.34 72.8836C288.561 72.7593 288.561 72.5094 288.45 72.2606Z" fill="white" fill-opacity="0.1"/>
<path d="M286.02 83.7323C285.91 83.4824 285.689 83.4824 285.468 83.6068C285.248 83.7323 285.248 83.981 285.358 84.231C285.468 84.4797 285.689 84.4797 285.91 84.3553C286.131 84.231 286.131 83.8567 286.02 83.7323Z" fill="white" fill-opacity="0.1"/>
<path d="M283.264 95.079C283.153 94.8291 282.933 94.8291 282.712 94.9534C282.491 95.079 282.491 95.3277 282.601 95.5776C282.712 95.8264 282.933 95.8264 283.153 95.702C283.264 95.5776 283.374 95.3277 283.264 95.079Z" fill="white" fill-opacity="0.1"/>
<path d="M294.63 4.93101C294.52 4.68157 294.299 4.55697 294.079 4.68157C293.858 4.80629 293.858 5.05562 293.968 5.30506C294.079 5.55439 294.299 5.55439 294.52 5.42966C294.63 5.30506 294.741 5.05562 294.63 4.93101Z" fill="white" fill-opacity="0.1"/>
<path d="M295.622 15.404C295.512 15.1553 295.291 15.1553 295.07 15.2796C294.849 15.404 294.849 15.6539 294.96 15.9039C295.07 16.1526 295.291 16.1526 295.512 16.0282C295.622 15.9039 295.732 15.6539 295.622 15.404Z" fill="white" fill-opacity="0.1"/>
<path d="M296.285 26.2509C296.175 26.0021 295.954 25.8778 295.733 26.0021C295.513 26.1265 295.513 26.3764 295.623 26.6251C295.733 26.8751 295.954 26.8751 296.175 26.7507C296.285 26.6251 296.395 26.3764 296.285 26.2509Z" fill="white" fill-opacity="0.1"/>
<path d="M296.505 37.2252C296.395 36.9752 296.174 36.9752 295.953 37.1008C295.733 37.2252 295.733 37.4751 295.843 37.7238C295.953 37.9737 296.174 37.9737 296.395 37.8482C296.505 37.5994 296.505 37.3495 296.505 37.2252Z" fill="white" fill-opacity="0.1"/>
<path d="M296.064 48.3206C295.954 48.0706 295.733 48.0706 295.512 48.1962C295.292 48.3206 295.292 48.5693 295.402 48.8192C295.512 49.0679 295.733 49.0679 295.954 48.9436C296.174 48.8192 296.174 48.5693 296.064 48.3206Z" fill="white" fill-opacity="0.1"/>
<path d="M295.292 59.6675C295.181 59.4188 294.961 59.4188 294.74 59.5431C294.519 59.6675 294.519 59.9174 294.63 60.1661C294.74 60.416 294.961 60.416 295.181 60.2905C295.292 60.1661 295.292 59.9174 295.292 59.6675Z" fill="white" fill-opacity="0.1"/>
<path d="M293.857 71.0137C293.746 70.7649 293.526 70.7649 293.305 70.8893C293.084 71.0137 293.084 71.2636 293.195 71.5123C293.305 71.7622 293.526 71.7622 293.746 71.6367C293.967 71.5123 293.967 71.2636 293.857 71.0137Z" fill="white" fill-opacity="0.1"/>
<path d="M291.982 82.4852C291.872 82.2353 291.651 82.2353 291.431 82.3608C291.21 82.4852 291.21 82.7339 291.32 82.9838C291.431 83.2337 291.651 83.2337 291.872 83.1082C292.093 82.9838 292.093 82.7339 291.982 82.4852Z" fill="white" fill-opacity="0.1"/>
<path d="M289.885 93.9563C289.775 93.7076 289.554 93.7076 289.333 93.8319C289.113 93.9563 289.113 94.2062 289.223 94.4549C289.333 94.7049 289.554 94.7049 289.775 94.5805C289.885 94.4549 289.885 94.2062 289.885 93.9563Z" fill="white" fill-opacity="0.1"/>
<path d="M297.058 5.05517C296.948 4.80584 296.727 4.80584 296.506 4.93057C296.286 5.05517 296.286 5.30461 296.396 5.55394C296.506 5.80326 296.727 5.80326 296.948 5.67866C297.058 5.55394 297.168 5.30461 297.058 5.05517Z" fill="white" fill-opacity="0.1"/>
<path d="M298.383 15.4039C298.273 15.1552 298.052 15.1552 297.831 15.2796C297.611 15.4039 297.611 15.6538 297.721 15.9026C297.831 15.9026 298.052 16.0281 298.273 15.9026C298.493 15.7782 298.493 15.5295 298.383 15.4039Z" fill="white" fill-opacity="0.1"/>
<path d="M299.486 25.8778C299.376 25.6279 299.155 25.6279 298.934 25.7523C298.714 25.8778 298.714 26.1265 298.824 26.3765C298.934 26.6252 299.155 26.6252 299.376 26.5008C299.486 26.3765 299.596 26.0022 299.486 25.8778Z" fill="white" fill-opacity="0.1"/>
<path d="M300.147 36.6009C300.037 36.351 299.816 36.351 299.595 36.4765C299.375 36.6009 299.375 36.8508 299.485 37.0995C299.595 37.3495 299.816 37.3495 300.037 37.2239C300.147 37.0995 300.147 36.8508 300.147 36.6009Z" fill="white" fill-opacity="0.1"/>
<path d="M300.369 47.5731C300.258 47.3232 300.038 47.3232 299.817 47.4488C299.596 47.5731 299.596 47.8219 299.707 48.0718C299.817 48.3205 300.038 48.3205 300.258 48.1961C300.369 48.0718 300.369 47.8219 300.369 47.5731Z" fill="white" fill-opacity="0.1"/>
<path d="M300.038 58.7947C299.928 58.5459 299.707 58.5459 299.487 58.6703C299.266 58.7947 299.266 59.0446 299.376 59.2933C299.487 59.4177 299.707 59.5432 299.928 59.4177C300.038 59.2933 300.149 59.0446 300.038 58.7947Z" fill="white" fill-opacity="0.1"/>
<path d="M299.376 70.1404C299.266 69.8917 299.045 69.8917 298.824 70.0161C298.604 70.1404 298.604 70.3903 298.714 70.6391C298.824 70.7646 299.045 70.889 299.155 70.7646C299.376 70.6391 299.487 70.3903 299.376 70.1404Z" fill="white" fill-opacity="0.1"/>
<path d="M298.273 81.7377C298.162 81.4878 297.942 81.4878 297.721 81.6134C297.5 81.7377 297.5 81.9865 297.611 82.2364C297.721 82.4863 297.942 82.4863 298.162 82.3607C298.273 82.2364 298.383 81.9865 298.273 81.7377Z" fill="white" fill-opacity="0.1"/>
<path d="M296.837 93.4574C296.727 93.2075 296.506 93.0832 296.286 93.2075C296.065 93.3319 296.065 93.5818 296.175 93.8317C296.286 94.0805 296.506 94.0805 296.727 93.9561C296.837 93.8317 296.948 93.5818 296.837 93.4574Z" fill="white" fill-opacity="0.1"/>
<path d="M299.596 5.9276C299.485 5.67815 299.265 5.67815 299.044 5.80288C298.823 5.9276 298.823 6.17692 298.934 6.42625C299.044 6.67557 299.265 6.67557 299.485 6.55097C299.706 6.42625 299.706 6.0522 299.596 5.9276Z" fill="white" fill-opacity="0.1"/>
<path d="M301.252 15.7783C301.141 15.5284 300.921 15.5284 300.7 15.6528C300.479 15.7783 300.479 16.0271 300.589 16.277C300.7 16.5257 300.921 16.5257 301.141 16.4013C301.252 16.277 301.362 16.0271 301.252 15.7783Z" fill="white" fill-opacity="0.1"/>
<path d="M302.685 26.0011C302.575 25.7523 302.354 25.7523 302.133 25.8767C301.913 26.0011 301.913 26.251 302.023 26.5009C302.133 26.7496 302.354 26.7496 302.575 26.6253C302.685 26.5009 302.795 26.251 302.685 26.0011Z" fill="white" fill-opacity="0.1"/>
<path d="M303.791 36.4764C303.68 36.2265 303.459 36.2265 303.239 36.3508C303.018 36.4764 303.018 36.7251 303.128 36.9751C303.128 37.0994 303.459 37.2238 303.57 37.0994C303.791 36.9751 303.901 36.7251 303.791 36.4764Z" fill="white" fill-opacity="0.1"/>
<path d="M304.563 47.3233C304.452 47.0734 304.232 46.949 304.011 47.0734C303.79 47.1989 303.79 47.4477 303.901 47.6976C304.011 47.9463 304.232 47.9463 304.452 47.8219C304.563 47.8219 304.673 47.4477 304.563 47.3233Z" fill="white" fill-opacity="0.1"/>
<path d="M304.894 58.4209C304.784 58.1722 304.563 58.1722 304.342 58.2965C304.122 58.4209 304.122 58.6708 304.232 58.9195C304.342 59.1695 304.563 59.1695 304.784 59.0451C305.004 58.9195 305.004 58.5465 304.894 58.4209Z" fill="white" fill-opacity="0.1"/>
<path d="M305.004 69.7664C304.893 69.5177 304.673 69.5177 304.452 69.5177C304.231 69.642 304.231 69.8919 304.342 70.1407C304.452 70.3906 304.673 70.3906 304.893 70.2662C305.004 70.2662 305.004 70.0163 305.004 69.7664Z" fill="white" fill-opacity="0.1"/>
<path d="M304.673 81.362C304.562 81.1133 304.341 81.1133 304.121 81.2376C303.9 81.362 303.9 81.6119 304.01 81.7363C304.121 81.8606 304.341 82.1106 304.452 81.985C304.673 81.8606 304.783 81.6119 304.673 81.362Z" fill="white" fill-opacity="0.1"/>
<path d="M304.122 93.2078C304.012 92.959 303.791 92.959 303.57 93.0834C303.349 93.2078 303.349 93.4577 303.46 93.7064C303.57 93.9563 303.791 93.9563 304.012 93.8308C304.122 93.7064 304.122 93.4577 304.122 93.2078Z" fill="white" fill-opacity="0.1"/>
<path d="M302.133 7.17413C302.023 6.92469 301.802 6.92469 301.581 7.04941C301.361 7.17413 301.361 7.42346 301.471 7.6729C301.581 7.92223 301.802 7.92223 302.023 7.7975C302.133 7.6729 302.244 7.29874 302.133 7.17413Z" fill="white" fill-opacity="0.1"/>
<path d="M304.01 16.6515C303.9 16.4028 303.679 16.4028 303.458 16.5271C303.238 16.6515 303.238 16.9014 303.348 17.1501C303.458 17.4001 303.679 17.4001 303.9 17.2745C304.12 17.1501 304.12 16.9014 304.01 16.6515Z" fill="white" fill-opacity="0.1"/>
<path d="M302.576 0.19257C302.465 -0.0568739 302.245 -0.0568739 302.024 0.0678482C301.803 0.19257 301.803 0.441895 301.914 0.69122C302.024 0.940664 302.245 0.940664 302.465 0.815942C302.686 0.566617 302.686 0.317173 302.576 0.19257Z" fill="white" fill-opacity="0.1"/>
<path d="M304.673 8.9212C304.563 8.67176 304.342 8.67176 304.121 8.79648C303.901 8.9212 303.901 9.17053 304.011 9.41997C304.121 9.6693 304.342 9.6693 304.563 9.54458C304.783 9.29525 304.783 9.04581 304.673 8.9212Z" fill="white" fill-opacity="0.1"/>
</g>
</g>
<defs>
<linearGradient id="paint0_linear_1026_20144" x1="357.5" y1="286.5" x2="262.504" y2="-2.0597" gradientUnits="userSpaceOnUse">
<stop stop-color="#6346FE"/>
<stop offset="1" stop-color="#D752FF"/>
</linearGradient>
<linearGradient id="paint1_linear_1026_20144" x1="357.5" y1="239.915" x2="288.881" y2="-8.99623" gradientUnits="userSpaceOnUse">
<stop stop-color="#6346FE"/>
<stop offset="1" stop-color="#D752FF"/>
</linearGradient>
<clipPath id="clip0_1026_20144">
<rect width="500" height="103" fill="white"/>
</clipPath>
</defs>
</svg>
