<svg width="30" height="30" viewBox="0 0 30 30" fill="none" xmlns="http://www.w3.org/2000/svg">
<path fill-rule="evenodd" clip-rule="evenodd" d="M15 30C23.2837 30 30 23.2837 30 15C30 6.71631 23.2837 0 15 0C6.71631 0 0 6.71631 0 15C0 23.2837 6.71631 30 15 30ZM11.1047 13.3878L15 9.49397L18.9512 13.4451L21.1989 11.1989L15 5L8.85848 11.1415L11.1047 13.3878ZM12.5773 15L15 17.4228L17.4228 15L15 12.5773L12.5773 15ZM20.4958 15.0103L20.5061 15L20.4796 14.9735L22.7273 12.7273L25 15L22.7435 17.2565L20.4958 15.0103ZM15 20.5061L18.9674 16.5387L21.2136 18.7864L15 25L8.82027 18.8203L11.068 16.574L15 20.5061ZM9.49397 15L9.57635 14.9162L7.3301 12.6699L5 15L7.29185 17.2919L9.53958 15.0456L9.49397 15Z" fill="white"/>
</svg>
