<svg width="200" height="49" viewBox="0 0 200 49" fill="none" xmlns="http://www.w3.org/2000/svg">
<path fill-rule="evenodd" clip-rule="evenodd" d="M17 0.5L0 13.5V48.5H17H183L200 35.5V0.5H183H17Z" fill="url(#paint0_linear_916_22549)"/>
<path d="M32.4459 31.9075C31.0193 31.9075 29.7259 31.6008 28.5659 30.9875C27.4193 30.3608 26.5126 29.5008 25.8459 28.4075C25.1926 27.3008 24.8659 26.0541 24.8659 24.6675C24.8659 23.2808 25.1926 22.0408 25.8459 20.9475C26.5126 19.8408 27.4193 18.9808 28.5659 18.3675C29.7259 17.7408 31.0259 17.4275 32.4659 17.4275C33.6793 17.4275 34.7726 17.6408 35.7459 18.0675C36.7326 18.4941 37.5593 19.1075 38.2259 19.9075L36.1459 21.8275C35.1993 20.7341 34.0259 20.1875 32.6259 20.1875C31.7593 20.1875 30.9859 20.3808 30.3059 20.7675C29.6259 21.1408 29.0926 21.6675 28.7059 22.3475C28.3326 23.0275 28.1459 23.8008 28.1459 24.6675C28.1459 25.5341 28.3326 26.3075 28.7059 26.9875C29.0926 27.6675 29.6259 28.2008 30.3059 28.5875C30.9859 28.9608 31.7593 29.1475 32.6259 29.1475C34.0259 29.1475 35.1993 28.5941 36.1459 27.4875L38.2259 29.4075C37.5593 30.2208 36.7326 30.8408 35.7459 31.2675C34.7593 31.6941 33.6593 31.9075 32.4459 31.9075ZM46.9009 31.9075C45.4476 31.9075 44.1343 31.5941 42.9609 30.9675C41.8009 30.3408 40.8876 29.4808 40.2209 28.3875C39.5676 27.2808 39.2409 26.0408 39.2409 24.6675C39.2409 23.2941 39.5676 22.0608 40.2209 20.9675C40.8876 19.8608 41.8009 18.9941 42.9609 18.3675C44.1343 17.7408 45.4476 17.4275 46.9009 17.4275C48.3543 17.4275 49.6609 17.7408 50.8209 18.3675C51.9809 18.9941 52.8943 19.8608 53.5609 20.9675C54.2276 22.0608 54.5609 23.2941 54.5609 24.6675C54.5609 26.0408 54.2276 27.2808 53.5609 28.3875C52.8943 29.4808 51.9809 30.3408 50.8209 30.9675C49.6609 31.5941 48.3543 31.9075 46.9009 31.9075ZM46.9009 29.1475C47.7276 29.1475 48.4743 28.9608 49.1409 28.5875C49.8076 28.2008 50.3276 27.6675 50.7009 26.9875C51.0876 26.3075 51.2809 25.5341 51.2809 24.6675C51.2809 23.8008 51.0876 23.0275 50.7009 22.3475C50.3276 21.6675 49.8076 21.1408 49.1409 20.7675C48.4743 20.3808 47.7276 20.1875 46.9009 20.1875C46.0743 20.1875 45.3276 20.3808 44.6609 20.7675C43.9943 21.1408 43.4676 21.6675 43.0809 22.3475C42.7076 23.0275 42.5209 23.8008 42.5209 24.6675C42.5209 25.5341 42.7076 26.3075 43.0809 26.9875C43.4676 27.6675 43.9943 28.2008 44.6609 28.5875C45.3276 28.9608 46.0743 29.1475 46.9009 29.1475ZM69.8359 17.6675V31.6675H67.1759L60.1959 23.1675V31.6675H56.9959V17.6675H59.6759L66.6359 26.1675V17.6675H69.8359ZM85.9883 17.6675V31.6675H83.3283L76.3483 23.1675V31.6675H73.1483V17.6675H75.8283L82.7883 26.1675V17.6675H85.9883ZM100.141 29.0675V31.6675H89.3006V17.6675H99.8806V20.2675H92.5206V23.3075H99.0206V25.8275H92.5206V29.0675H100.141ZM109.38 31.9075C107.953 31.9075 106.66 31.6008 105.5 30.9875C104.353 30.3608 103.446 29.5008 102.78 28.4075C102.126 27.3008 101.8 26.0541 101.8 24.6675C101.8 23.2808 102.126 22.0408 102.78 20.9475C103.446 19.8408 104.353 18.9808 105.5 18.3675C106.66 17.7408 107.96 17.4275 109.4 17.4275C110.613 17.4275 111.706 17.6408 112.68 18.0675C113.666 18.4941 114.493 19.1075 115.16 19.9075L113.08 21.8275C112.133 20.7341 110.96 20.1875 109.56 20.1875C108.693 20.1875 107.92 20.3808 107.24 20.7675C106.56 21.1408 106.026 21.6675 105.64 22.3475C105.266 23.0275 105.08 23.8008 105.08 24.6675C105.08 25.5341 105.266 26.3075 105.64 26.9875C106.026 27.6675 106.56 28.2008 107.24 28.5875C107.92 28.9608 108.693 29.1475 109.56 29.1475C110.96 29.1475 112.133 28.5941 113.08 27.4875L115.16 29.4075C114.493 30.2208 113.666 30.8408 112.68 31.2675C111.693 31.6941 110.593 31.9075 109.38 31.9075ZM120.111 20.3075H115.631V17.6675H127.831V20.3075H123.351V31.6675H120.111V20.3075Z" fill="white"/>
<path d="M143.228 18H138L144.971 24.9708L138 31.9415H143.228L150.199 24.9708L143.228 18Z" fill="white"/>
<path d="M155.427 18H150.199L157.169 24.9708L150.199 31.9415H155.427L162.398 24.9708L155.427 18Z" fill="white" fill-opacity="0.7"/>
<path d="M167.626 18H162.398L169.368 24.9708L162.398 31.9415H167.626L174.597 24.9708L167.626 18Z" fill="white" fill-opacity="0.5"/>
<defs>
<linearGradient id="paint0_linear_916_22549" x1="-30.9051" y1="-20.1197" x2="210.798" y2="13.2819" gradientUnits="userSpaceOnUse">
<stop stop-color="#6346FE"/>
<stop offset="1" stop-color="#D752FF"/>
</linearGradient>
</defs>
</svg>
