<svg width="30" height="30" viewBox="0 0 30 30" fill="none" xmlns="http://www.w3.org/2000/svg">
<path d="M14.9902 28.5314C13.1157 28.5314 11.2485 28.5385 9.37403 28.5314C7.97178 28.5244 6.87716 27.9191 6.17604 26.7366C4.27299 23.52 2.37709 20.2893 0.502649 17.0445C-0.177013 15.8691 -0.162705 14.6303 0.516957 13.4478C2.38424 10.2171 4.27299 7.0005 6.17604 3.79092C6.87716 2.61548 7.97178 2.00313 9.37403 2.00313C13.1014 1.99609 16.836 2.00313 20.5634 2.00313C22.0372 2.00313 23.1533 2.6366 23.8902 3.88946C25.5285 6.66969 27.1526 9.44991 28.7837 12.2372C29.0127 12.6243 29.2416 13.0044 29.4634 13.3985C30.1717 14.6514 30.186 15.9113 29.4634 17.1501C27.6104 20.3315 25.7503 23.5129 23.8759 26.6803C23.1461 27.9191 22.0301 28.5385 20.5706 28.5385C18.7104 28.5314 16.8503 28.5314 14.9902 28.5314ZM9.10216 19.698C9.05924 19.684 9.00916 19.6699 8.96623 19.6558C8.93761 19.6065 8.909 19.5502 8.88038 19.501C8.05048 18.2622 7.53536 16.9178 7.49244 15.4186C7.3565 10.9773 11.3272 7.05681 16.4211 7.94366C20.3917 8.64048 23.0674 12.385 22.4665 16.3266C21.9657 19.6277 19.3257 22.1897 15.9703 22.6331C15.6269 22.6754 15.2907 22.7105 14.89 22.7528C14.89 23.2666 14.89 23.7734 14.89 24.2731C14.89 24.5546 14.933 24.611 15.2191 24.5898C15.7772 24.5476 16.3352 24.5124 16.8861 24.4068C20.9354 23.6607 25.3783 19.5925 24.2837 13.6167C23.5825 9.7948 21.2574 7.20462 17.394 6.24737C13.4162 5.26198 10.0465 6.44445 7.49959 9.6118C4.92403 12.8143 4.93118 17.3753 7.38512 20.7327C7.72138 21.1902 8.00755 21.6759 8.32234 22.1404C8.37242 22.2178 8.46543 22.2812 8.55843 22.3234C8.80884 22.429 8.98769 22.3516 9.18802 22.1615C10.8335 20.5638 12.4933 18.9801 14.146 17.3824C14.3463 17.1853 14.5395 17.1008 14.8399 17.136C15.7056 17.2416 16.5641 16.6433 16.7859 15.8057C16.9934 15.0315 16.7859 14.3487 16.1563 13.849C15.5268 13.3563 14.8113 13.2718 14.0744 13.6308C13.3733 13.9757 13.0013 14.6725 13.0871 15.4679C13.1086 15.665 13.0657 15.7987 12.9154 15.9324C12.5935 16.228 12.2858 16.5377 11.9639 16.8404C11.8995 16.9037 11.8208 16.953 11.6992 17.0375C11.6062 16.8052 11.5203 16.6152 11.4559 16.4251C10.6475 14.025 12.3789 11.9345 14.1961 11.5544C16.4497 11.0899 18.6604 12.7862 18.7748 15.0667C18.875 17.136 17.1007 18.959 15.1977 18.8956C15.0045 18.8886 14.9401 18.966 14.9401 19.142C14.9401 19.4798 14.9401 19.8247 14.933 20.1626C14.9258 20.8172 14.9258 20.8172 15.5983 20.7679C17.9378 20.6131 19.9696 18.8464 20.5348 16.5307C21.4219 12.927 18.4887 9.61884 15.1261 9.63995C11.8637 9.66107 9.3311 12.0471 9.3311 15.1863C9.3311 16.2351 9.65305 17.1923 10.1682 18.1003C10.3399 18.41 10.3256 18.4241 10.0537 18.6563C9.79613 18.8816 9.55289 19.1209 9.30964 19.3672C9.22379 19.4587 9.17371 19.5854 9.10216 19.698Z" fill="white"/>
</svg>
