<svg width="39" height="39" viewBox="0 0 39 39" fill="none" xmlns="http://www.w3.org/2000/svg">
<path d="M37 19.5C37 21.7981 36.5473 24.0738 35.6679 26.197C34.7884 28.3202 33.4994 30.2493 31.8744 31.8744C30.2493 33.4994 28.3202 34.7884 26.197 35.6679C24.0738 36.5473 21.7981 37 19.5 37C17.2019 37 14.9262 36.5473 12.803 35.6679C10.6798 34.7884 8.75066 33.4994 7.12563 31.8744C5.50061 30.2493 4.21156 28.3202 3.33211 26.197C2.45265 24.0738 2 21.7981 2 19.5C2 17.2019 2.45265 14.9262 3.33211 12.803C4.21157 10.6798 5.50061 8.75066 7.12563 7.12563C8.75066 5.5006 10.6798 4.21156 12.803 3.33211C14.9262 2.45265 17.2019 2 19.5 2C21.7981 2 24.0738 2.45265 26.197 3.33211C28.3202 4.21157 30.2493 5.50061 31.8744 7.12563C33.4994 8.75066 34.7884 10.6798 35.6679 12.803C36.5473 14.9262 37 17.2019 37 19.5L37 19.5Z" stroke="#FF65F9" stroke-width="3.39924" stroke-linecap="round"/>
<path fill-rule="evenodd" clip-rule="evenodd" d="M31.697 19.4997C31.697 26.2359 26.2363 31.6967 19.5001 31.6967C12.7639 31.6967 7.3031 26.2359 7.3031 19.4997C7.3031 12.7635 12.7639 7.30273 19.5001 7.30273C26.2363 7.30273 31.697 12.7635 31.697 19.4997ZM24.435 13.9883C25.3109 14.769 25.388 16.112 24.6073 16.9879L22.3972 19.4676L24.8765 21.6774C25.7524 22.4581 25.8296 23.8011 25.0488 24.677C24.2681 25.5529 22.9252 25.6301 22.0493 24.8494L19.57 22.6396L17.3599 25.1192C16.5792 25.9951 15.2362 26.0723 14.3603 25.2916C13.4844 24.5109 13.4072 23.1679 14.1879 22.292L16.398 19.8124L13.918 17.6019C13.042 16.8212 12.9649 15.4782 13.7456 14.6023C14.5263 13.7264 15.8692 13.6492 16.7451 14.4299L19.2252 16.6404L21.4354 14.1607C22.2161 13.2848 23.559 13.2076 24.435 13.9883Z" fill="#FF65F9"/>
</svg>
