<svg width="200" height="49" viewBox="0 0 200 49" fill="none" xmlns="http://www.w3.org/2000/svg">
<path fill-rule="evenodd" clip-rule="evenodd" d="M17 0.5L0 13.5V48.5H17H183L200 35.5V0.5H183H17Z" fill="url(#paint0_linear_916_23879)"/>
<path d="M34.9666 31.6675V17.6675H38.2066V31.6675H34.9666ZM41.5291 31.6675V17.6675H44.2091L52.4691 27.7475H51.1691V17.6675H54.3691V31.6675H51.7091L43.4291 21.5875H44.7291V31.6675H41.5291ZM62.2815 31.9075C61.1615 31.9075 60.0882 31.7608 59.0615 31.4675C58.0348 31.1608 57.2082 30.7675 56.5815 30.2875L57.6815 27.8475C58.2815 28.2741 58.9882 28.6275 59.8015 28.9075C60.6282 29.1741 61.4615 29.3075 62.3015 29.3075C62.9415 29.3075 63.4548 29.2475 63.8415 29.1275C64.2415 28.9941 64.5348 28.8141 64.7215 28.5875C64.9082 28.3608 65.0015 28.1008 65.0015 27.8075C65.0015 27.4341 64.8548 27.1408 64.5615 26.9275C64.2682 26.7008 63.8815 26.5208 63.4015 26.3875C62.9215 26.2408 62.3882 26.1075 61.8015 25.9875C61.2282 25.8541 60.6482 25.6941 60.0615 25.5075C59.4882 25.3208 58.9615 25.0808 58.4815 24.7875C58.0015 24.4941 57.6082 24.1075 57.3015 23.6275C57.0082 23.1475 56.8615 22.5341 56.8615 21.7875C56.8615 20.9875 57.0748 20.2608 57.5015 19.6075C57.9415 18.9408 58.5948 18.4141 59.4615 18.0275C60.3415 17.6275 61.4415 17.4275 62.7615 17.4275C63.6415 17.4275 64.5082 17.5341 65.3615 17.7475C66.2148 17.9475 66.9682 18.2541 67.6215 18.6675L66.6215 21.1275C65.9682 20.7541 65.3148 20.4808 64.6615 20.3075C64.0082 20.1208 63.3682 20.0275 62.7415 20.0275C62.1148 20.0275 61.6015 20.1008 61.2015 20.2475C60.8015 20.3941 60.5148 20.5875 60.3415 20.8275C60.1682 21.0541 60.0815 21.3208 60.0815 21.6275C60.0815 21.9875 60.2282 22.2808 60.5215 22.5075C60.8148 22.7208 61.2015 22.8941 61.6815 23.0275C62.1615 23.1608 62.6882 23.2941 63.2615 23.4275C63.8482 23.5608 64.4282 23.7141 65.0015 23.8875C65.5882 24.0608 66.1215 24.2941 66.6015 24.5875C67.0815 24.8808 67.4682 25.2675 67.7615 25.7475C68.0682 26.2275 68.2215 26.8341 68.2215 27.5675C68.2215 28.3541 68.0015 29.0741 67.5615 29.7275C67.1215 30.3808 66.4615 30.9075 65.5815 31.3075C64.7148 31.7075 63.6148 31.9075 62.2815 31.9075ZM73.1401 31.6675V20.3075H68.6601V17.6675H80.8601V20.3075H76.3801V31.6675H73.1401ZM80.0602 31.6675L86.3002 17.6675H89.5002L95.7602 31.6675H92.3602L87.2402 19.3075H88.5202L83.3802 31.6675H80.0602ZM83.1802 28.6675L84.0402 26.2075H91.2402L92.1202 28.6675H83.1802ZM97.2127 31.6675V17.6675H100.453V29.0275H107.473V31.6675H97.2127ZM109.283 31.6675V17.6675H112.523V29.0275H119.543V31.6675H109.283Z" fill="white"/>
<path d="M143.228 18H138L144.971 24.9708L138 31.9415H143.228L150.199 24.9708L143.228 18Z" fill="white"/>
<path d="M155.427 18H150.199L157.17 24.9708L150.199 31.9415H155.427L162.398 24.9708L155.427 18Z" fill="white" fill-opacity="0.7"/>
<path d="M167.626 18H162.398L169.368 24.9708L162.398 31.9415H167.626L174.596 24.9708L167.626 18Z" fill="white" fill-opacity="0.5"/>
<defs>
<linearGradient id="paint0_linear_916_23879" x1="-30.9051" y1="-20.1197" x2="210.798" y2="13.2819" gradientUnits="userSpaceOnUse">
<stop stop-color="#6346FE"/>
<stop offset="1" stop-color="#D752FF"/>
</linearGradient>
</defs>
</svg>
