<svg width="39" height="39" viewBox="0 0 39 39" fill="none" xmlns="http://www.w3.org/2000/svg">
<path d="M37 19.5C37 21.7981 36.5473 24.0738 35.6679 26.197C34.7884 28.3202 33.4994 30.2493 31.8744 31.8744C30.2493 33.4994 28.3202 34.7884 26.197 35.6679C24.0738 36.5473 21.7981 37 19.5 37C17.2019 37 14.9262 36.5473 12.803 35.6679C10.6798 34.7884 8.75066 33.4994 7.12563 31.8744C5.50061 30.2493 4.21156 28.3202 3.33211 26.197C2.45265 24.0738 2 21.7981 2 19.5C2 17.2019 2.45265 14.9262 3.33211 12.803C4.21157 10.6798 5.50061 8.75066 7.12563 7.12563C8.75066 5.5006 10.6798 4.21156 12.803 3.33211C14.9262 2.45265 17.2019 2 19.5 2C21.7981 2 24.0738 2.45265 26.197 3.33211C28.3202 4.21157 30.2493 5.50061 31.8744 7.12563C33.4994 8.75066 34.7884 10.6798 35.6679 12.803C36.5473 14.9262 37 17.2019 37 19.5L37 19.5Z" stroke="#8EFFE1" stroke-width="3.32319" stroke-linecap="round"/>
<path fill-rule="evenodd" clip-rule="evenodd" d="M19.5004 31.6967C26.2366 31.6967 31.6974 26.2359 31.6974 19.4997C31.6974 12.7635 26.2366 7.30273 19.5004 7.30273C12.7642 7.30273 7.30347 12.7635 7.30347 19.4997C7.30347 26.2359 12.7642 31.6967 19.5004 31.6967ZM27.7246 18.1533C28.6405 17.1257 28.5499 15.5502 27.5223 14.6343C26.4948 13.7184 24.9193 13.8089 24.0034 14.8365L18.5558 20.9485L16.886 19.1952C15.9367 18.1984 14.359 18.1599 13.3623 19.1092C12.3655 20.0586 12.327 21.6362 13.2763 22.633L16.8117 26.3451C17.292 26.8494 17.9613 27.1298 18.6577 27.1183C19.354 27.1068 20.0137 26.8045 20.4771 26.2846L27.7246 18.1533Z" fill="#8EFFE1"/>
</svg>
