<svg width="200" height="49" viewBox="0 0 200 49" fill="none" xmlns="http://www.w3.org/2000/svg">
<path fill-rule="evenodd" clip-rule="evenodd" d="M17 0.5L0 13.5V48.5H17H183L200 35.5V0.5H183H17Z" fill="url(#paint0_linear_916_25211)"/>
<path d="M39.6233 31.9075C38.5033 31.9075 37.4299 31.7608 36.4033 31.4675C35.3766 31.1608 34.5499 30.7675 33.9233 30.2875L35.0233 27.8475C35.6233 28.2741 36.3299 28.6275 37.1433 28.9075C37.9699 29.1741 38.8033 29.3075 39.6433 29.3075C40.2833 29.3075 40.7966 29.2475 41.1833 29.1275C41.5833 28.9941 41.8766 28.8141 42.0633 28.5875C42.2499 28.3608 42.3433 28.1008 42.3433 27.8075C42.3433 27.4341 42.1966 27.1408 41.9033 26.9275C41.6099 26.7008 41.2233 26.5208 40.7433 26.3875C40.2633 26.2408 39.7299 26.1075 39.1433 25.9875C38.5699 25.8541 37.9899 25.6941 37.4033 25.5075C36.8299 25.3208 36.3033 25.0808 35.8233 24.7875C35.3433 24.4941 34.9499 24.1075 34.6433 23.6275C34.3499 23.1475 34.2033 22.5341 34.2033 21.7875C34.2033 20.9875 34.4166 20.2608 34.8433 19.6075C35.2833 18.9408 35.9366 18.4141 36.8033 18.0275C37.6833 17.6275 38.7833 17.4275 40.1033 17.4275C40.9833 17.4275 41.8499 17.5341 42.7033 17.7475C43.5566 17.9475 44.3099 18.2541 44.9633 18.6675L43.9633 21.1275C43.3099 20.7541 42.6566 20.4808 42.0033 20.3075C41.3499 20.1208 40.7099 20.0275 40.0833 20.0275C39.4566 20.0275 38.9433 20.1008 38.5433 20.2475C38.1433 20.3941 37.8566 20.5875 37.6833 20.8275C37.5099 21.0541 37.4233 21.3208 37.4233 21.6275C37.4233 21.9875 37.5699 22.2808 37.8633 22.5075C38.1566 22.7208 38.5433 22.8941 39.0233 23.0275C39.5033 23.1608 40.0299 23.2941 40.6033 23.4275C41.1899 23.5608 41.7699 23.7141 42.3433 23.8875C42.9299 24.0608 43.4633 24.2941 43.9433 24.5875C44.4233 24.8808 44.8099 25.2675 45.1033 25.7475C45.4099 26.2275 45.5633 26.8341 45.5633 27.5675C45.5633 28.3541 45.3433 29.0741 44.9033 29.7275C44.4633 30.3808 43.8033 30.9075 42.9233 31.3075C42.0566 31.7075 40.9566 31.9075 39.6233 31.9075ZM51.1372 31.6675L46.5572 17.6675H49.9172L53.8972 30.0675H52.2172L56.3772 17.6675H59.3772L63.3772 30.0675H61.7572L65.8372 17.6675H68.9372L64.3572 31.6675H60.8772L57.3372 20.7875H58.2572L54.6172 31.6675H51.1372ZM70.7459 31.6675V17.6675H73.9859V31.6675H70.7459ZM80.2084 31.6675V20.3075H75.7284V17.6675H87.9284V20.3075H83.4484V31.6675H80.2084ZM96.1764 31.9075C95.0964 31.9075 94.0897 31.7341 93.1564 31.3875C92.2364 31.0275 91.4364 30.5208 90.7564 29.8675C90.0764 29.2141 89.5431 28.4475 89.1564 27.5675C88.7831 26.6875 88.5964 25.7208 88.5964 24.6675C88.5964 23.6141 88.7831 22.6475 89.1564 21.7675C89.5431 20.8875 90.0764 20.1208 90.7564 19.4675C91.4497 18.8141 92.2564 18.3141 93.1764 17.9675C94.0964 17.6075 95.1031 17.4275 96.1964 17.4275C97.4097 17.4275 98.5031 17.6408 99.4764 18.0675C100.463 18.4808 101.29 19.0941 101.956 19.9075L99.8764 21.8275C99.3964 21.2808 98.8631 20.8741 98.2764 20.6075C97.6897 20.3275 97.0497 20.1875 96.3564 20.1875C95.7031 20.1875 95.1031 20.2941 94.5564 20.5075C94.0097 20.7208 93.5364 21.0275 93.1364 21.4275C92.7364 21.8275 92.4231 22.3008 92.1964 22.8475C91.9831 23.3941 91.8764 24.0008 91.8764 24.6675C91.8764 25.3341 91.9831 25.9408 92.1964 26.4875C92.4231 27.0341 92.7364 27.5075 93.1364 27.9075C93.5364 28.3075 94.0097 28.6141 94.5564 28.8275C95.1031 29.0408 95.7031 29.1475 96.3564 29.1475C97.0497 29.1475 97.6897 29.0141 98.2764 28.7475C98.8631 28.4675 99.3964 28.0475 99.8764 27.4875L101.956 29.4075C101.29 30.2208 100.463 30.8408 99.4764 31.2675C98.5031 31.6941 97.4031 31.9075 96.1764 31.9075ZM113.744 17.6675H116.984V31.6675H113.744V17.6675ZM107.384 31.6675H104.144V17.6675H107.384V31.6675ZM113.984 25.9275H107.144V23.1875H113.984V25.9275Z" fill="white"/>
<path d="M143.228 18H138L144.971 24.9708L138 31.9415H143.228L150.199 24.9708L143.228 18Z" fill="white"/>
<path d="M155.427 18H150.199L157.17 24.9708L150.199 31.9415H155.427L162.398 24.9708L155.427 18Z" fill="white" fill-opacity="0.7"/>
<path d="M167.626 18H162.398L169.368 24.9708L162.398 31.9415H167.626L174.597 24.9708L167.626 18Z" fill="white" fill-opacity="0.5"/>
<defs>
<linearGradient id="paint0_linear_916_25211" x1="56.4" y1="2.06099" x2="194.398" y2="53.0147" gradientUnits="userSpaceOnUse">
<stop offset="0.0260417" stop-color="#4DAAFF"/>
<stop offset="1" stop-color="#7F4CEF"/>
</linearGradient>
</defs>
</svg>
